<svg width="100" height="100" viewBox="0 0 100 100" fill="none" xmlns="http://www.w3.org/2000/svg">
<path d="M100 0H0V100H100V0Z" fill="white"/>
<path d="M100 0H0V100H100V0Z" fill="white"/>
<path d="M100 0H0V100H100V0Z" fill="white"/>
<path d="M79.027 7.73748C78.9541 7.73956 78.8822 7.74685 78.8104 7.76248C78.7395 7.7781 78.6708 7.79998 78.6041 7.82914C78.5364 7.85727 78.4739 7.89269 78.4135 7.93435C78.3531 7.97602 78.2979 8.02289 78.2479 8.07498C78.1968 8.12706 78.151 8.18331 78.1114 8.24477C78.0718 8.30623 78.0385 8.37081 78.0124 8.43852C77.9854 8.50623 77.9656 8.57498 77.952 8.64685C77.9385 8.71873 77.9322 8.7906 77.9333 8.86352C77.9333 17.5969 73.3031 23.1 71.9958 24.4802C71.7562 24.4396 71.5145 24.4135 71.2687 24.4135C69.4593 24.4135 67.8593 25.4541 66.1604 26.6156C64.4604 27.7771 62.6708 29.1458 60.8229 30.1364C60.7812 30.1583 60.7406 30.1823 60.702 30.2094C60.7177 30.1989 59.827 30.6937 58.6385 31.2573C57.4499 31.8219 55.8406 32.5562 53.9416 33.401C50.3156 35.0146 45.6156 37.0312 40.7687 39.0302C35.5572 34.401 29.327 29.526 25.8739 26.5041C25.8708 26.5031 25.8687 26.5021 25.8666 26.5C24.9614 25.7187 23.9531 25.2531 22.9708 25.101C21.9885 24.9489 21.0333 25.1094 20.2312 25.5781C18.6249 26.5177 17.8864 28.6562 18.6364 30.9062C18.6718 31.0125 18.7218 31.1114 18.7864 31.2021C18.852 31.2927 18.9291 31.3719 19.0177 31.4406C19.1072 31.5083 19.2041 31.5604 19.3093 31.5989C19.4135 31.6375 19.5229 31.6594 19.6343 31.6656H18.7812L21.9708 47.4989C20.5958 47.9 18.3885 48.5396 16.6385 48.8677C16.4427 48.9052 16.2697 48.9875 16.1187 49.1177C15.9687 49.2469 15.8604 49.4052 15.7947 49.5937C15.7291 49.7812 15.7145 49.9719 15.752 50.1677C15.7885 50.3625 15.8729 50.5354 16.002 50.6864C16.002 50.6864 19.2864 54.5479 23.7739 56.4385L25.4677 64.8521C23.4854 64.0073 20.3687 63.1729 16.0593 65.6562C15.9958 65.6927 15.9364 65.7354 15.8822 65.7833C15.827 65.8312 15.7781 65.8844 15.7333 65.9427C15.6885 66 15.651 66.0625 15.6187 66.1271C15.5864 66.1927 15.5604 66.2604 15.5416 66.3312C15.5229 66.4021 15.5114 66.4729 15.5062 66.5458C15.502 66.6187 15.5041 66.6917 15.5135 66.7635C15.5229 66.8364 15.5395 66.9062 15.5624 66.976C15.5864 67.0448 15.6166 67.1104 15.6531 67.1739C15.6895 67.2375 15.7312 67.2958 15.7791 67.351C15.827 67.4062 15.8802 67.4552 15.9385 67.5C15.9958 67.5448 16.0572 67.5833 16.1229 67.6156C16.1885 67.6479 16.2562 67.6729 16.327 67.6927C16.3968 67.7114 16.4687 67.7229 16.5416 67.7281C16.6145 67.7333 16.6864 67.7302 16.7593 67.7208C16.8312 67.7114 16.902 67.6958 16.9708 67.6719C17.0406 67.6489 17.1062 67.6187 17.1697 67.5833C22.4541 64.5375 26.3031 67.5156 26.3031 67.5156C26.3937 67.5812 26.4916 67.6323 26.5968 67.6687C26.7031 67.7052 26.8114 67.725 26.9239 67.7281C27.0354 67.7323 27.1458 67.7187 27.2531 67.6896C27.3614 67.6594 27.4624 67.6146 27.5562 67.5542C27.651 67.4937 27.7333 67.4208 27.8062 67.3354C27.8781 67.25 27.9364 67.1562 27.9802 67.0531C28.0239 66.95 28.052 66.8437 28.0624 66.7323C28.0739 66.6208 28.0687 66.5104 28.0468 66.401L26.8041 60.2333C26.8802 60.1489 26.9427 60.0562 26.9906 59.9531C29.5708 54.3156 29.1854 48.9573 28.5531 45.0698C29.927 46.9083 31.4927 48.9448 32.6156 50.4323C32.7468 50.6041 32.9124 50.7281 33.1145 50.8031L33.1177 50.8052L33.126 50.8073C33.2479 50.851 33.3739 50.8729 33.5031 50.8729C33.6781 50.8719 33.8437 50.8333 33.9989 50.7552C34.1552 50.676 34.2864 50.5677 34.3906 50.4281C34.3916 50.4281 34.3916 50.4281 34.3927 50.4281V50.426C34.4979 50.2854 34.5656 50.1292 34.5958 49.9573C34.627 49.7854 34.6177 49.6156 34.5687 49.4469C34.5302 49.3187 34.4708 49.201 34.3906 49.0937C32.5739 46.6896 30.6093 43.7396 27.5333 40.0479C27.4249 39.9177 27.2927 39.8177 27.1385 39.7469C26.9843 39.6771 26.8218 39.6448 26.652 39.6489C26.5666 39.651 26.4833 39.6625 26.401 39.6833C26.3187 39.7052 26.2395 39.7354 26.1635 39.775C26.0885 39.8146 26.0187 39.8614 25.9541 39.9177C25.8895 39.9729 25.8322 40.0354 25.7822 40.1041C25.7312 40.1729 25.6895 40.2458 25.6562 40.325C25.6229 40.4031 25.5989 40.4844 25.5843 40.5677C25.5697 40.6521 25.5656 40.7364 25.5697 40.8219C25.5749 40.9062 25.5895 40.9896 25.6135 41.0719C25.6135 41.0719 27.8427 48.9896 25.9802 56.1458L20.7791 30.3354L20.777 30.3375C20.7687 30.2927 20.7572 30.2479 20.7427 30.2031C20.2343 28.6791 20.6843 27.8854 21.3499 27.4958C22.0156 27.1073 23.151 27.0896 24.4156 28.1812L24.4114 28.175C28.027 31.3385 34.3635 36.2906 39.5281 40.8979C39.6552 41.1208 39.8374 41.2812 40.0749 41.3771C40.2208 41.5094 40.3864 41.6458 40.5302 41.7771C40.6156 41.8541 40.7114 41.9177 40.8166 41.9656C40.9218 42.0135 41.0322 42.0437 41.1468 42.0573C41.2614 42.0708 41.376 42.0666 41.4895 42.0448C41.6031 42.0229 41.7104 41.9833 41.8114 41.9281C41.9135 41.8729 42.0031 41.8031 42.0833 41.7187C42.1624 41.6344 42.2281 41.5406 42.2781 41.4364C42.3281 41.3323 42.3614 41.2229 42.377 41.1083C42.3937 40.9937 42.3916 40.8802 42.3718 40.7656C46.9593 38.8656 51.3916 36.9677 54.8437 35.4312C56.7541 34.5812 58.376 33.8406 59.5906 33.2646C60.7874 32.6958 61.4552 32.3906 61.9583 32.0364C63.9864 30.9364 65.8156 29.5427 67.4135 28.451C69.0364 27.3416 70.4406 26.6344 71.2687 26.6344C72.0864 26.6344 73.202 27.2531 74.1177 28.6C75.0333 29.9479 75.7124 31.9573 75.7124 34.4094C75.7124 37.4583 74.4541 39.9635 72.8156 41.7229C71.1781 43.4812 69.1145 44.4062 67.9364 44.4062C67.7531 44.4062 67.6302 44.3698 67.4052 44.1802C67.1802 43.9906 66.8906 43.626 66.5979 43.0823C66.0124 41.9958 65.4156 40.2291 64.7958 37.9521C64.7677 37.8489 64.7249 37.751 64.6687 37.6594C64.6114 37.5687 64.5437 37.4864 64.4635 37.4156C64.3833 37.3437 64.2947 37.2854 64.1968 37.2396C64.0999 37.1937 63.9979 37.1625 63.8916 37.1458C63.7864 37.1302 63.6791 37.1291 63.5729 37.1437C63.4666 37.1583 63.3645 37.1875 63.2666 37.2312C63.1687 37.276 63.0791 37.3333 62.9979 37.4031C62.9166 37.4729 62.8468 37.5541 62.7885 37.6437C61.5854 39.5239 58.7218 44.7969 54.4062 49.6729C50.0906 54.5489 44.4531 58.8448 37.9468 58.8448C34.6989 58.8448 32.4666 57.7885 32.4666 57.7885C32.3999 57.7542 32.3312 57.7271 32.2593 57.7062C32.1874 57.6864 32.1145 57.6729 32.0406 57.6677C31.9656 57.6614 31.8916 57.6635 31.8177 57.6729C31.7437 57.6823 31.6708 57.6989 31.601 57.7219C31.5302 57.7458 31.4624 57.7771 31.3979 57.8146C31.3333 57.8521 31.2729 57.8958 31.2177 57.9448C31.1614 57.9948 31.1114 58.0489 31.0666 58.1083C31.0218 58.1687 30.9833 58.2323 30.952 58.2989C30.9197 58.3666 30.8947 58.4364 30.877 58.5094C30.8593 58.5812 30.8489 58.6552 30.8458 58.7291C30.8427 58.8041 30.8468 58.8781 30.8593 58.9521C30.8708 59.026 30.8895 59.0969 30.9166 59.1666C30.9427 59.2364 30.976 59.3031 31.0156 59.3666C31.0552 59.4291 31.101 59.4885 31.152 59.5416C31.2041 59.5958 31.2604 59.6437 31.3218 59.6864C31.3833 59.7291 31.4479 59.7656 31.5166 59.7948C31.5166 59.7948 34.2052 61.0667 37.9468 61.0667C44.0427 61.0667 49.2281 57.8479 53.3927 53.8948L51.3406 59.5781C51.2937 59.7062 51.2718 59.8385 51.2749 59.975C51.277 60.1125 51.3041 60.2437 51.3552 60.3698C51.4062 60.4969 51.4781 60.6104 51.5708 60.7104C51.6635 60.8104 51.7708 60.8906 51.8937 60.951L60.0187 64.9604C60.1739 65.0364 60.3385 65.075 60.5124 65.075C60.6854 65.0739 60.8499 65.0354 61.0052 64.9583C61.0052 64.9583 61.577 64.6802 62.2572 64.5719C62.9364 64.4635 63.4802 64.5125 63.8499 64.9562C63.8958 65.0114 63.9479 65.0625 64.0052 65.1083C64.0614 65.1542 64.1218 65.1948 64.1864 65.2281C64.251 65.2625 64.3187 65.2896 64.3885 65.3104C64.4583 65.3312 64.5302 65.3448 64.6031 65.351C64.6749 65.3573 64.7479 65.3573 64.8208 65.3489C64.8927 65.3417 64.9645 65.3271 65.0343 65.3052C65.1031 65.2833 65.1708 65.2552 65.2343 65.2198C65.2989 65.1854 65.3583 65.1448 65.4145 65.0979C65.4708 65.051 65.5218 64.9989 65.5677 64.9427C65.6135 64.8854 65.6531 64.825 65.6874 64.7604C65.7208 64.6958 65.7489 64.6292 65.7687 64.5583C65.7895 64.4885 65.8031 64.4177 65.8104 64.3448C65.8166 64.2719 65.8156 64.1989 65.8083 64.1271C65.801 64.0542 65.7864 63.9833 65.7645 63.9135C65.7427 63.8437 65.7145 63.7771 65.6791 63.7125C65.6447 63.6489 65.6031 63.5885 65.5572 63.5323C64.527 62.2969 62.9739 62.2073 61.9062 62.3781C61.1802 62.4948 60.9385 62.6427 60.6187 62.7802L53.7677 59.3979L57.0416 50.3364C57.0927 50.2031 57.1166 50.0656 57.1135 49.9229C57.4802 49.4833 57.8302 49.05 58.1677 48.6208L57.9395 55.476C57.9354 55.6073 57.9541 55.7354 57.9947 55.8604C58.0354 55.9844 58.0968 56.0989 58.1781 56.2021C58.2604 56.3052 58.3562 56.3906 58.4687 56.4594C58.5802 56.5281 58.701 56.576 58.8291 56.6021L66.0187 58.0635C66.2697 58.1146 66.5083 58.0823 66.7374 57.9687C66.7374 57.9687 67.3093 57.6906 67.9885 57.5823C68.6687 57.4739 69.2124 57.5229 69.5812 57.9667C69.6281 58.0219 69.6802 58.0729 69.7364 58.1187C69.7927 58.1646 69.8541 58.2052 69.9187 58.2385C69.9833 58.2729 70.0499 58.3 70.1208 58.3208C70.1906 58.3417 70.2614 58.3552 70.3343 58.3614C70.4072 58.3677 70.4802 58.3677 70.552 58.3594C70.6249 58.3521 70.6958 58.3375 70.7656 58.3156C70.8354 58.2937 70.902 58.2656 70.9666 58.2312C71.0302 58.1958 71.0906 58.1552 71.1468 58.1083C71.202 58.0614 71.2531 58.0094 71.2989 57.9531C71.3447 57.8969 71.3854 57.8354 71.4187 57.7708C71.4531 57.7062 71.4802 57.6396 71.501 57.5687C71.5218 57.4989 71.5354 57.4281 71.5416 57.3552C71.5479 57.2823 71.5479 57.2104 71.5395 57.1375C71.5322 57.0646 71.5177 56.9937 71.4958 56.9239C71.4739 56.8541 71.4458 56.7875 71.4114 56.7229C71.376 56.6594 71.3354 56.5989 71.2885 56.5427C70.2593 55.3083 68.7052 55.2187 67.6374 55.3896C66.8333 55.5177 66.4927 55.7104 66.2124 55.8364L60.1916 54.6104L60.4937 45.4562C61.7406 43.6385 62.7166 42.0281 63.4572 40.7937C63.8374 41.9625 64.1947 43.3031 64.6437 44.1364C65.0197 44.8354 65.4354 45.425 65.9739 45.8792C66.5114 46.3323 67.2114 46.6271 67.9364 46.6271C70.0916 46.6271 72.4708 45.3541 74.4427 43.2364C76.4145 41.1198 77.9333 38.0708 77.9333 34.4094C77.9333 31.8364 77.2999 29.6146 76.2979 27.9062C78.4312 26.6531 84.5979 22.3635 84.5979 14.4177C84.5989 14.3427 84.5926 14.2698 84.5791 14.1958C84.5656 14.1229 84.5447 14.0521 84.5166 13.9833C84.4885 13.9146 84.4541 13.8489 84.4124 13.7875C84.3718 13.726 84.3249 13.6687 84.2718 13.6156C84.2197 13.5635 84.1624 13.5166 84.0999 13.476C84.0385 13.4344 83.9729 13.4 83.9041 13.3719C83.8354 13.3448 83.7645 13.3239 83.6906 13.3104C83.6177 13.2969 83.5447 13.2906 83.4697 13.2916C83.3968 13.2927 83.3249 13.301 83.2541 13.3156C83.1822 13.3312 83.1135 13.3531 83.0468 13.3823C82.9801 13.4114 82.9166 13.4469 82.8562 13.4875C82.7968 13.5291 82.7416 13.576 82.6906 13.6281C82.6395 13.6802 82.5947 13.7375 82.5552 13.7979C82.5156 13.8594 82.4822 13.9239 82.4552 13.9916C82.4281 14.0594 82.4083 14.1291 82.3947 14.201C82.3812 14.2719 82.376 14.3448 82.377 14.4177C82.377 21.5187 76.5083 25.2635 74.9552 26.1312C74.6906 25.8646 74.4093 25.6333 74.1197 25.4219C76.0322 23.1875 80.1552 17.3948 80.1552 8.86352C80.1562 8.78956 80.1499 8.7156 80.1364 8.64269C80.1218 8.56977 80.101 8.49894 80.0729 8.43019C80.0458 8.36144 80.0104 8.29581 79.9697 8.23435C79.9281 8.17185 79.8812 8.11456 79.8291 8.06248C79.776 8.01039 79.7187 7.96352 79.6572 7.92185C79.5947 7.88123 79.5302 7.84685 79.4604 7.81873C79.3916 7.7906 79.3208 7.76977 79.2479 7.75623C79.1749 7.74269 79.101 7.73644 79.027 7.73748ZM71.8333 33.0708C71.6958 33.0708 71.5593 33.0844 71.4239 33.1114C71.2885 33.1385 71.1572 33.1781 71.0302 33.2302C70.9031 33.2833 70.7822 33.3479 70.6677 33.425C70.5531 33.501 70.4468 33.5875 70.3499 33.6854C70.252 33.7823 70.1656 33.8885 70.0885 34.0031C70.0124 34.1177 69.9479 34.2385 69.8947 34.3656C69.8416 34.4937 69.802 34.625 69.7749 34.7594C69.7489 34.8948 69.7354 35.0312 69.7354 35.1687C69.7354 35.3062 69.7489 35.4427 69.776 35.5781C69.8031 35.7125 69.8427 35.8437 69.8958 35.9708C69.9479 36.0979 70.0124 36.2187 70.0895 36.3333C70.1656 36.4479 70.2531 36.5541 70.3499 36.651C70.4479 36.7479 70.5531 36.8354 70.6677 36.9114C70.7822 36.9885 70.9031 37.0521 71.0302 37.1052C71.1583 37.1583 71.2885 37.1979 71.4239 37.2239C71.5593 37.251 71.6958 37.2646 71.8333 37.2646C71.9708 37.2646 72.1072 37.251 72.2416 37.2239C72.377 37.1969 72.5072 37.1573 72.6343 37.1041C72.7614 37.0521 72.8822 36.9875 72.9968 36.9104C73.1114 36.8344 73.2177 36.7479 73.3145 36.65C73.4114 36.5531 73.4989 36.4469 73.5749 36.3333C73.652 36.2187 73.7166 36.0979 73.7687 35.9708C73.8218 35.8437 73.8614 35.7125 73.8885 35.5781C73.9156 35.4427 73.9291 35.3062 73.9291 35.1687C73.9291 35.0312 73.9156 34.8948 73.8885 34.7604C73.8614 34.625 73.8218 34.4937 73.7697 34.3666C73.7166 34.2396 73.652 34.1187 73.576 34.0041C73.4999 33.8896 73.4124 33.7833 73.3156 33.6864C73.2177 33.5885 73.1124 33.5021 72.9979 33.425C72.8833 33.3489 72.7624 33.2844 72.6354 33.2312C72.5083 33.1781 72.377 33.1385 72.2416 33.1114C72.1072 33.0844 71.9708 33.0708 71.8333 33.0708ZM44.2374 42.6969L43.3479 43.1416L43.1729 44.1219L43.8541 44.8479L44.2374 44.9177L45.127 44.4708L45.3031 43.4927L44.6239 42.7656L44.2374 42.6969ZM45.9968 46.6708L45.1072 47.1177L44.9322 48.0979L45.6114 48.825L45.9968 48.8916L46.8864 48.4469L47.0624 47.4666L46.3812 46.7396L45.9968 46.6708ZM22.4062 49.6531L23.2249 53.7166C21.3916 52.7114 19.9989 51.4687 19.0354 50.5323C20.3749 50.1917 21.4687 49.9031 22.4062 49.6531ZM44.4156 50.7031L43.526 51.15L43.3499 52.1281L44.0312 52.8552L44.4156 52.925L45.3052 52.4781L45.4812 51.5L44.802 50.7729L44.4156 50.7031ZM36.4364 51.9729L35.5447 52.4198L35.3708 53.3979L36.0499 54.1271L36.4364 54.1937L37.326 53.7489L37.502 52.7687L36.8208 52.0416L36.4364 51.9729ZM40.6427 52.8812L39.7531 53.326L39.5781 54.3062L40.2572 55.0333L40.6427 55.1031L41.5322 54.6562L41.7083 53.6771L41.027 52.951L40.6427 52.8812Z" fill="#6BC7CA"/>
</svg>
