<svg width="100" height="100" viewBox="0 0 100 100" fill="none" xmlns="http://www.w3.org/2000/svg">
<g clip-path="url(#clip0)">
<path opacity="0.1" d="M52.02 100C69.5803 100 83.8156 98.9702 83.8156 97.6999C83.8156 96.4297 69.5803 95.3999 52.02 95.3999C34.4598 95.3999 20.2244 96.4297 20.2244 97.6999C20.2244 98.9702 34.4598 100 52.02 100Z" fill="#06AC9C"/>
<path d="M70.03 88.6826L69.7566 89.2186L68.0658 92.581L66.6302 93.1596L65.5592 91.7587L65.6111 90.834L65.8782 86.0329C65.8782 86.0329 59.2516 80.8224 58.6592 79.8478C58.0667 78.8732 55.788 77.99 55.788 77.99C55.788 77.99 52.3015 75.8276 51.0026 72.051C49.7037 68.2745 53.1674 67.6958 53.1674 67.6958L66.179 84.3273L70.03 88.6826Z" fill="#FFC1C7"/>
<path d="M71.6252 90.6317L67.5007 95.7788C67.5007 95.7788 65.1308 96.3879 63.0116 95.9615C61.6571 95.6886 61.9178 94.6958 62.2742 94.0123L62.2806 94.0001C62.494 93.6093 62.8062 93.3349 63.1592 93.2278C64.913 92.6625 65.5182 90.9655 65.5182 90.9655L66.7943 92.4274L69.0046 88.9846L70.639 90.0104L71.6252 90.6317Z" fill="#575988"/>
<path opacity="0.1" d="M70.639 90.0128L69.6682 89.4037L69.7594 89.2185L70.0328 88.6825L66.179 84.3272L53.1674 67.6981C53.1674 67.6981 49.7037 68.2743 51.0026 72.0509C52.3015 75.8275 55.788 77.9899 55.788 77.9899C55.788 77.9899 58.0667 78.8731 58.6592 79.8477C59.2517 80.8223 65.8828 86.0303 65.8828 86.0303L65.6157 90.8315L65.603 91.0605L65.5182 90.9642C65.5182 90.9642 64.913 92.6613 63.1592 93.2265C62.8061 93.3337 62.494 93.608 62.2806 93.9989L62.2742 94.0111C61.9096 94.6933 61.6571 95.6862 63.0116 95.9603C65.1308 96.3867 67.5007 95.7776 67.5007 95.7776L71.6252 90.6304L70.639 90.0128Z" fill="black"/>
<path opacity="0.1" d="M1.08008 52.3823C2.66243 61.4217 6.01217 69.2356 11.3052 73.0256C22.3079 80.8979 47.1196 76.8375 65.6366 72.1728C74.9939 69.8242 83.4874 63.3346 89.7493 53.7492L1.08008 52.3823Z" fill="#06AC9C"/>
<path opacity="0.1" d="M98.1861 9.83374H88.0256C87.7976 9.82392 87.5814 9.69595 87.4227 9.4769C87.264 9.25784 87.1752 8.96488 87.1752 8.65996C87.1752 8.35504 87.264 8.06207 87.4227 7.84302C87.5814 7.62396 87.7976 7.496 88.0256 7.48618H89.7821C89.5493 7.48618 89.326 7.36257 89.1614 7.14256C88.9968 6.92255 88.9043 6.62415 88.9043 6.313C88.9043 6.00186 88.9968 5.70345 89.1614 5.48344C89.326 5.26343 89.5493 5.13983 89.7821 5.13983H88.5279C88.2998 5.13001 88.0836 5.00204 87.9249 4.78298C87.7662 4.56393 87.6775 4.27096 87.6775 3.96604C87.6775 3.66112 87.7662 3.36816 87.9249 3.1491C88.0836 2.93005 88.2998 2.80208 88.5279 2.79226H93.8309C92.6542 2.06131 91.2787 1.54112 89.6937 1.26823C75.2337 -1.21334 70.071 0.427639 68.2498 2.12101C66.003 4.20421 63.4964 5.73677 60.8175 6.47503C51.8958 8.93467 35.2109 11.8938 20.0883 5.52723C12.5722 2.35978 6.98652 7.71033 3.6377 16.6474H99.9498C99.824 14.0501 99.4476 11.6526 98.7566 9.55233C98.5977 9.73421 98.3953 9.83403 98.1861 9.83374Z" fill="#06AC9C"/>
<path opacity="0.1" d="M0.217992 33.5139C-0.172264 38.7713 -0.0398579 44.0745 0.611757 49.2854L89.8178 53.6455C92.3015 49.828 94.3865 45.5783 96.016 41.0122L0.217992 33.5139ZM35.5001 44.762H33.7437C33.8614 44.757 33.9786 44.7836 34.0885 44.8403C34.1984 44.897 34.2986 44.9826 34.3832 45.0921C34.4678 45.2016 34.5351 45.3327 34.581 45.4777C34.627 45.6226 34.6506 45.7784 34.6506 45.9358C34.6506 46.0932 34.627 46.249 34.581 46.394C34.5351 46.5389 34.4678 46.67 34.3832 46.7795C34.2986 46.889 34.1984 46.9746 34.0885 47.0314C33.9786 47.0881 33.8614 47.1147 33.7437 47.1096H23.5832C23.3552 47.0998 23.139 46.9718 22.9803 46.7528C22.8216 46.5337 22.7328 46.2407 22.7328 45.9358C22.7328 45.6309 22.8216 45.3379 22.9803 45.1189C23.139 44.8998 23.3552 44.7718 23.5832 44.762H25.3397C25.1069 44.762 24.8836 44.6384 24.719 44.4184C24.5544 44.1984 24.4619 43.9 24.4619 43.5889C24.4619 43.2777 24.5544 42.9793 24.719 42.7593C24.8836 42.5393 25.1069 42.4157 25.3397 42.4157H24.0855C23.8574 42.4059 23.6412 42.2779 23.4825 42.0588C23.3238 41.8398 23.2351 41.5468 23.2351 41.2419C23.2351 40.937 23.3238 40.644 23.4825 40.4249C23.6412 40.2059 23.8574 40.0779 24.0855 40.0681H34.2459C34.4739 40.0779 34.6901 40.2059 34.8488 40.4249C35.0075 40.644 35.0963 40.937 35.0963 41.2419C35.0963 41.5468 35.0075 41.8398 34.8488 42.0588C34.6901 42.2779 34.4739 42.4059 34.2459 42.4157H35.5001C35.7329 42.4157 35.9562 42.5393 36.1208 42.7593C36.2854 42.9793 36.3779 43.2777 36.3779 43.5889C36.3779 43.9 36.2854 44.1984 36.1208 44.4184C35.9562 44.6384 35.7329 44.762 35.5001 44.762Z" fill="#06AC9C"/>
<path opacity="0.1" d="M99.9547 16.7253L2.56336 19.8928C1.37841 23.963 0.597264 28.5594 0.232666 33.3337H98.2483C98.8881 30.532 99.3614 27.6671 99.6639 24.7658C99.9556 21.9626 100.072 19.2508 99.9547 16.7253ZM20.0048 27.0975H18.2483C18.3661 27.0924 18.4833 27.119 18.5932 27.1758C18.7031 27.2325 18.8033 27.3181 18.8879 27.4276C18.9725 27.5371 19.0398 27.6682 19.0857 27.8131C19.1316 27.9581 19.1553 28.1139 19.1553 28.2713C19.1553 28.4287 19.1316 28.5845 19.0857 28.7294C19.0398 28.8744 18.9725 29.0055 18.8879 29.115C18.8033 29.2245 18.7031 29.3101 18.5932 29.3668C18.4833 29.4235 18.3661 29.4501 18.2483 29.4451H8.08792C7.8599 29.4353 7.64367 29.3073 7.48497 29.0882C7.32627 28.8692 7.23754 28.5762 7.23754 28.2713C7.23754 27.9664 7.32627 27.6734 7.48497 27.4543C7.64367 27.2353 7.8599 27.1073 8.08792 27.0975H9.84437C9.61157 27.0975 9.38831 26.9739 9.22369 26.7539C9.05908 26.5339 8.9666 26.2355 8.9666 25.9243C8.9666 25.6132 9.05908 25.3148 9.22369 25.0948C9.38831 24.8748 9.61157 24.7512 9.84437 24.7512H8.59015C8.36213 24.7413 8.14591 24.6134 7.98721 24.3943C7.8285 24.1753 7.73977 23.8823 7.73977 23.5774C7.73977 23.2725 7.8285 22.9795 7.98721 22.7604C8.14591 22.5414 8.36213 22.4134 8.59015 22.4036H18.7506C18.9786 22.4134 19.1948 22.5414 19.3535 22.7604C19.5122 22.9795 19.601 23.2725 19.601 23.5774C19.601 23.8823 19.5122 24.1753 19.3535 24.3943C19.1948 24.6134 18.9786 24.7413 18.7506 24.7512H20.0048C20.2376 24.7512 20.4609 24.8748 20.6255 25.0948C20.7901 25.3148 20.8826 25.6132 20.8826 25.9243C20.8826 26.2355 20.7901 26.5339 20.6255 26.7539C20.4609 26.9739 20.2376 27.0975 20.0048 27.0975Z" fill="#06AC9C"/>
<g opacity="0.1">
<path opacity="0.1" d="M72.6743 60.1353C72.6743 60.1353 75.2447 51.6685 80.0447 48.5278C82.0644 47.2279 83.7138 45.087 84.7452 42.4268C85.2276 41.1592 85.6221 39.8351 85.9238 38.4712" stroke="#535461" stroke-width="2" stroke-miterlimit="10"/>
<path opacity="0.1" d="M88.9396 36.4684C88.4392 37.309 85.8496 38.5394 85.8496 38.5394C85.8496 38.5394 86.1613 34.8907 86.6618 34.0501C86.7759 33.8323 86.9222 33.648 87.0917 33.5085C87.2611 33.3691 87.4501 33.2775 87.647 33.2393C87.844 33.2011 88.0446 33.2172 88.2367 33.2866C88.4288 33.356 88.6083 33.4772 88.764 33.6427C88.9198 33.8082 89.0485 34.0146 89.1424 34.2491C89.2362 34.4836 89.2931 34.7414 89.3097 35.0064C89.3262 35.2714 89.302 35.5382 89.2385 35.7902C89.175 36.0423 89.0736 36.2743 88.9405 36.472L88.9396 36.4684Z" fill="#06AC9C"/>
<path opacity="0.1" d="M88.0512 43.1262C87.2892 43.4685 84.6167 42.617 84.6167 42.617C84.6167 42.617 86.3622 39.7809 87.1242 39.4386C87.3088 39.3375 87.507 39.288 87.7064 39.2934C87.9058 39.2987 88.1023 39.3586 88.2837 39.4695C88.4652 39.5803 88.6276 39.7398 88.7611 39.9379C88.8946 40.136 88.9962 40.3687 89.0598 40.6214C89.1233 40.8741 89.1474 41.1416 89.1305 41.4072C89.1136 41.6729 89.0561 41.9311 88.9616 42.1658C88.867 42.4006 88.7375 42.607 88.5809 42.7722C88.4243 42.9373 88.244 43.0578 88.0512 43.1262Z" fill="#06AC9C"/>
<path opacity="0.1" d="M83.233 50.9973C82.4464 50.778 80.4602 48.2403 80.4602 48.2403C80.4602 48.2403 83.0388 46.9697 83.8254 47.1878C84.1834 47.3186 84.4906 47.627 84.6844 48.05C84.8782 48.4731 84.9441 48.979 84.8685 49.4646C84.793 49.9503 84.5818 50.3792 84.2779 50.6639C83.974 50.9487 83.6003 51.0679 83.233 50.9973Z" fill="#06AC9C"/>
<path opacity="0.1" d="M78.5842 55.8544C77.7812 55.8179 75.5024 53.7639 75.5024 53.7639C75.5024 53.7639 77.8832 51.9292 78.6863 51.967C78.8858 51.9587 79.0845 52.0052 79.2701 52.1037C79.4557 52.2022 79.6241 52.3506 79.765 52.5396C79.9059 52.7287 80.0163 52.9544 80.0893 53.2028C80.1622 53.4512 80.1963 53.7169 80.1893 53.9836C80.1823 54.2503 80.1344 54.5123 80.0485 54.7532C79.9627 54.9941 79.8408 55.2089 79.6903 55.3843C79.5398 55.5597 79.364 55.6919 79.1737 55.7728C78.9835 55.8537 78.7828 55.8815 78.5842 55.8544Z" fill="#06AC9C"/>
<path opacity="0.1" d="M82.1283 40.2377C82.2304 41.3037 83.9713 44.1446 83.9713 44.1446C83.9713 44.1446 85.118 40.8066 85.015 39.7419C84.9437 39.2564 84.737 38.8253 84.4368 38.536C84.1365 38.2467 83.7651 38.1208 83.398 38.1839C83.0309 38.2469 82.6954 38.4942 82.4596 38.8756C82.2238 39.257 82.1054 39.7439 82.1283 40.2377Z" fill="#06AC9C"/>
<path opacity="0.1" d="M76.7449 46.0109C77.0812 46.9855 79.3791 49.0017 79.3791 49.0017C79.3791 49.0017 79.7246 45.3591 79.3882 44.3833C79.2114 43.9488 78.9177 43.6204 78.5665 43.4646C78.2153 43.3088 77.8329 43.3373 77.4968 43.5442C77.1608 43.7511 76.8961 44.1211 76.7565 44.5791C76.6169 45.0371 76.6127 45.5489 76.7449 46.0109Z" fill="#06AC9C"/>
<path opacity="0.1" d="M72.089 52.5821C72.2977 53.62 74.3066 56.1247 74.3066 56.1247C74.3066 56.1247 75.1087 52.6126 74.9009 51.5746C74.7829 51.1042 74.5351 50.7116 74.208 50.4769C73.8809 50.2423 73.4992 50.1831 73.1406 50.3116C72.782 50.4401 72.4736 50.7465 72.2782 51.1684C72.0828 51.5902 72.0151 52.0958 72.089 52.5821Z" fill="#06AC9C"/>
<path opacity="0.25" d="M88.9396 36.4684C88.4392 37.309 85.8496 38.5394 85.8496 38.5394C85.8496 38.5394 86.1613 34.8907 86.6618 34.0501C86.7759 33.8323 86.9222 33.648 87.0917 33.5085C87.2611 33.3691 87.4501 33.2775 87.647 33.2393C87.844 33.2011 88.0446 33.2172 88.2367 33.2866C88.4288 33.356 88.6083 33.4772 88.764 33.6427C88.9198 33.8082 89.0485 34.0146 89.1424 34.2491C89.2362 34.4836 89.2931 34.7414 89.3097 35.0064C89.3262 35.2714 89.302 35.5382 89.2385 35.7902C89.175 36.0423 89.0736 36.2743 88.9405 36.472L88.9396 36.4684Z" fill="black"/>
<path opacity="0.25" d="M88.0512 43.1262C87.2892 43.4685 84.6167 42.617 84.6167 42.617C84.6167 42.617 86.3622 39.7809 87.1242 39.4386C87.3088 39.3375 87.507 39.288 87.7064 39.2934C87.9058 39.2987 88.1023 39.3586 88.2837 39.4695C88.4652 39.5803 88.6276 39.7398 88.7611 39.9379C88.8946 40.136 88.9962 40.3687 89.0598 40.6214C89.1233 40.8741 89.1474 41.1416 89.1305 41.4072C89.1136 41.6729 89.0561 41.9311 88.9616 42.1658C88.867 42.4006 88.7375 42.607 88.5809 42.7722C88.4243 42.9373 88.244 43.0578 88.0512 43.1262Z" fill="black"/>
<path opacity="0.25" d="M83.233 50.9973C82.4464 50.778 80.4602 48.2403 80.4602 48.2403C80.4602 48.2403 83.0388 46.9697 83.8254 47.1878C84.1834 47.3186 84.4906 47.627 84.6844 48.05C84.8782 48.4731 84.9441 48.979 84.8685 49.4646C84.793 49.9503 84.5818 50.3792 84.2779 50.6639C83.974 50.9487 83.6003 51.0679 83.233 50.9973Z" fill="black"/>
<path opacity="0.25" d="M78.5842 55.8544C77.7812 55.8179 75.5024 53.7639 75.5024 53.7639C75.5024 53.7639 77.8832 51.9292 78.6863 51.967C78.8858 51.9587 79.0845 52.0052 79.2701 52.1037C79.4557 52.2022 79.6241 52.3506 79.765 52.5396C79.9059 52.7287 80.0163 52.9544 80.0893 53.2028C80.1622 53.4512 80.1963 53.7169 80.1893 53.9836C80.1823 54.2503 80.1344 54.5123 80.0485 54.7532C79.9627 54.9941 79.8408 55.2089 79.6903 55.3843C79.5398 55.5597 79.364 55.6919 79.1737 55.7728C78.9835 55.8537 78.7828 55.8815 78.5842 55.8544Z" fill="black"/>
<path opacity="0.25" d="M82.1283 40.2377C82.2304 41.3037 83.9713 44.1446 83.9713 44.1446C83.9713 44.1446 85.118 40.8066 85.015 39.7419C84.9437 39.2564 84.737 38.8253 84.4368 38.536C84.1365 38.2467 83.7651 38.1208 83.398 38.1839C83.0309 38.2469 82.6954 38.4942 82.4596 38.8756C82.2238 39.257 82.1054 39.7439 82.1283 40.2377Z" fill="black"/>
<path opacity="0.25" d="M76.7449 46.0109C77.0812 46.9855 79.3791 49.0017 79.3791 49.0017C79.3791 49.0017 79.7246 45.3591 79.3882 44.3833C79.2114 43.9488 78.9177 43.6204 78.5665 43.4646C78.2153 43.3088 77.8329 43.3373 77.4968 43.5442C77.1608 43.7511 76.8961 44.1211 76.7565 44.5791C76.6169 45.0371 76.6127 45.5489 76.7449 46.0109Z" fill="black"/>
<path opacity="0.25" d="M72.089 52.5821C72.2977 53.62 74.3066 56.1247 74.3066 56.1247C74.3066 56.1247 75.1087 52.6126 74.9009 51.5746C74.7829 51.1042 74.5351 50.7116 74.208 50.4769C73.8809 50.2423 73.4992 50.1831 73.1406 50.3116C72.782 50.4401 72.4736 50.7465 72.2782 51.1684C72.0828 51.5902 72.0151 52.0958 72.089 52.5821Z" fill="black"/>
</g>
<g opacity="0.1">
<path opacity="0.1" d="M68.5815 46.5896C68.5815 46.5896 68.906 37.4625 72.655 32.3714C74.2377 30.2499 75.2628 27.4995 75.5764 24.5332C75.7161 23.1221 75.7588 21.6969 75.704 20.2754" stroke="#535461" stroke-width="2" stroke-miterlimit="10"/>
<path opacity="0.1" d="M78.0545 17.0471C77.7911 18.0631 75.6528 20.3681 75.6528 20.3681C75.6528 20.3681 75.0421 16.7876 75.3046 15.7728C75.4484 15.3168 75.7167 14.9509 76.055 14.7496C76.3933 14.5482 76.7762 14.5263 77.1261 14.6885C77.476 14.8506 77.7666 15.1846 77.939 15.6226C78.1114 16.0606 78.1527 16.5699 78.0545 17.0471Z" fill="#06AC9C"/>
<path opacity="0.1" d="M78.8688 23.7231C78.2307 24.3834 75.5017 24.7659 75.5017 24.7659C75.5017 24.7659 76.4451 21.3159 77.0786 20.6556C77.3848 20.3767 77.759 20.2641 78.1251 20.3407C78.4912 20.4172 78.8218 20.6772 79.0497 21.0677C79.2776 21.4582 79.3857 21.95 79.3521 22.4432C79.3185 22.9364 79.1457 23.394 78.8688 23.7231Z" fill="#06AC9C"/>
<path opacity="0.1" d="M76.2763 33.284C75.4797 33.4266 72.9758 31.9123 72.9758 31.9123C72.9758 31.9123 75.0932 29.5708 75.8926 29.4283C76.2622 29.3945 76.6275 29.5499 76.9145 29.863C77.2014 30.1761 77.3885 30.6234 77.4377 31.1141C77.4868 31.6048 77.3945 32.1021 77.1793 32.5051C76.9641 32.9082 76.6423 33.1866 76.2791 33.284H76.2763Z" fill="#06AC9C"/>
<path opacity="0.1" d="M73.0953 39.9269C72.3287 40.2485 69.6699 39.3178 69.6699 39.3178C69.6699 39.3178 71.4601 36.5329 72.2276 36.2125C72.4139 36.1152 72.6132 36.0702 72.8132 36.0802C73.0131 36.0903 73.2093 36.1553 73.3896 36.271C73.57 36.3868 73.7305 36.5509 73.8614 36.7532C73.9922 36.9555 74.0906 37.1915 74.1502 37.4468C74.2099 37.702 74.2296 37.9709 74.2082 38.2367C74.1868 38.5026 74.1247 38.7597 74.0257 38.9921C73.9268 39.2245 73.7931 39.4272 73.6331 39.5876C73.473 39.748 73.2899 39.8627 73.0953 39.9245V39.9269Z" fill="#06AC9C"/>
<path opacity="0.1" d="M72.5637 23.6233C72.9283 24.5832 75.2726 26.4922 75.2726 26.4922C75.2726 26.4922 75.5251 22.8375 75.1642 21.8763C74.9766 21.4497 74.6746 21.1344 74.3195 20.9944C73.9644 20.8544 73.5827 20.9002 73.2519 21.1224C72.9211 21.3446 72.6659 21.7267 72.5381 22.1911C72.4103 22.6555 72.4195 23.1675 72.5637 23.6233Z" fill="#06AC9C"/>
<path opacity="0.1" d="M68.9177 31.4566C69.4774 32.2277 72.1444 33.1109 72.1444 33.1109C72.1444 33.1109 71.5674 29.5195 71.0077 28.7484C70.7333 28.4148 70.3741 28.2336 70.0033 28.2415C69.6324 28.2494 69.2777 28.4458 69.0114 28.7909C68.7451 29.136 68.5871 29.6037 68.5697 30.099C68.5523 30.5942 68.6768 31.0796 68.9177 31.4566Z" fill="#06AC9C"/>
<path opacity="0.1" d="M66.156 39.7187C66.6117 40.6056 69.1275 42.0784 69.1275 42.0784C69.1275 42.0784 69.0117 38.4091 68.5587 37.5222C68.3296 37.1358 67.9995 36.8798 67.6347 36.8057C67.27 36.7316 66.8979 36.845 66.5933 37.1231C66.2886 37.4011 66.0741 37.8231 65.993 38.304C65.9119 38.785 65.9701 39.2892 66.156 39.715V39.7187Z" fill="#06AC9C"/>
</g>
<path opacity="0.1" d="M39.2865 10.416C39.2865 10.416 37.1144 10.2417 37.3724 12.2762C37.3591 12.3794 37.3707 12.4856 37.4054 12.5795C37.4402 12.6734 37.4962 12.7502 37.5656 12.7989C37.5656 12.7989 37.5656 12.6478 37.788 12.699C37.8659 12.7171 37.9452 12.7224 38.0241 12.7148C38.1308 12.7049 38.2322 12.6489 38.313 12.5552C38.313 12.5552 38.9237 12.2177 39.1607 10.8838C39.1607 10.8838 39.3366 10.5926 39.3293 10.5183L38.9647 10.7278C38.9647 10.7278 39.0896 11.0811 38.9912 11.3747C38.9912 11.3747 38.9793 10.74 38.9091 10.7546C38.8945 10.7546 38.7186 10.8765 38.7186 10.8765C38.7186 10.8765 38.9346 11.4929 38.7715 11.94C38.7715 11.94 38.8335 11.181 38.6512 10.9215L38.3932 11.1225C38.3932 11.1225 38.6448 11.7585 38.4743 12.2774C38.4743 12.2774 38.5181 11.4819 38.3394 11.1713L38.1052 11.4149C38.1052 11.4149 38.3422 12.0423 38.1963 12.4724C38.1963 12.4724 38.1781 11.5453 38.0532 11.4758C37.9648 11.576 37.8858 11.6901 37.8181 11.8157C37.8181 11.8157 37.9794 12.2713 37.8791 12.5113C37.8791 12.5113 37.8181 11.8937 37.767 11.8913C37.767 11.8913 37.5629 12.3006 37.5419 12.5808C37.5517 12.3208 37.6124 12.0687 37.7178 11.8498C37.6001 11.8796 37.4915 11.9546 37.4052 12.0655C37.4052 12.0655 37.4371 11.7767 37.7698 11.7512C37.7698 11.7512 37.9384 11.4405 37.9831 11.4222C37.9831 11.4222 37.654 11.3845 37.4553 11.5039C37.4553 11.5039 37.6303 11.231 38.0432 11.354L38.2747 11.103C38.2747 11.103 37.8418 11.0239 37.6577 11.1104C37.6577 11.1104 37.8691 10.8667 38.3367 11.0458L38.5883 10.8448C38.3948 10.7875 38.1965 10.7646 37.9985 10.7766C37.9985 10.7766 38.231 10.6097 38.6621 10.79L38.8444 10.6828C38.8444 10.6828 38.571 10.6121 38.4944 10.5999C38.4178 10.5877 38.4114 10.5597 38.4114 10.5597C38.5826 10.5216 38.7584 10.5477 38.9191 10.6352C38.9191 10.6352 39.2938 10.4488 39.2865 10.416Z" fill="#06AC9C"/>
<path opacity="0.1" d="M33.5824 20.3166C33.5824 20.3166 32.8405 23.0516 34.3727 23.3013C34.4431 23.3474 34.5227 23.3626 34.5999 23.3446C34.6772 23.3267 34.7483 23.2766 34.8029 23.2014C34.8029 23.2014 34.6954 23.1539 34.7947 22.8883C34.8286 22.7932 34.8537 22.693 34.8695 22.5899C34.8928 22.4504 34.8816 22.3046 34.8376 22.1744C34.8376 22.1744 34.7692 21.2961 33.8796 20.6139C33.8796 20.6139 33.7201 20.3056 33.6645 20.2935L33.711 20.8222C33.711 20.8222 33.9999 20.7625 34.1831 20.972C34.1831 20.972 33.7274 20.8076 33.7146 20.9014C33.7146 20.9209 33.7483 21.1803 33.7483 21.1803C33.7483 21.1803 34.2515 21.0792 34.5267 21.4142C34.5267 21.4142 33.9999 21.1206 33.762 21.279L33.8331 21.6676C33.8331 21.6676 34.3609 21.5251 34.6844 21.8918C34.6844 21.8918 34.1257 21.6092 33.8522 21.7505L33.9607 22.116C33.9607 22.116 34.4775 21.9941 34.7455 22.2975C34.7455 22.2975 34.0756 22.0538 33.9899 22.1988C34.0366 22.3409 34.0963 22.4747 34.1676 22.5972C34.1676 22.5972 34.5395 22.5192 34.6835 22.719C34.6835 22.719 34.2232 22.6228 34.2068 22.6873C34.2068 22.6873 34.442 23.065 34.637 23.1746C34.4542 23.0885 34.2914 22.9398 34.1649 22.7434C34.1538 22.9006 34.1769 23.0588 34.2314 23.199C34.2314 23.199 34.0336 23.0772 34.1093 22.6459C34.1093 22.6459 33.9343 22.3413 33.9334 22.2804C33.9334 22.2804 33.814 22.6922 33.8422 22.9809C33.8422 22.9809 33.6964 22.6788 33.9024 22.1842L33.7875 21.8187C33.7875 21.8187 33.6052 22.3511 33.618 22.6106C33.618 22.6106 33.505 22.2719 33.7638 21.7225L33.6909 21.3436C33.5957 21.5739 33.5231 21.8195 33.4749 22.0745C33.4749 22.0745 33.4211 21.7286 33.6736 21.2291L33.6471 20.9671C33.6471 20.9671 33.5195 21.2936 33.4885 21.3923C33.4576 21.491 33.4357 21.4873 33.4357 21.4873C33.4573 21.2569 33.526 21.039 33.6344 20.8575C33.6344 20.8575 33.608 20.3178 33.5824 20.3166Z" fill="#06AC9C"/>
<path opacity="0.1" d="M47.9873 18.0131C47.9873 18.0131 47.2444 20.7469 48.7776 20.9966C48.8478 21.0428 48.9271 21.0581 49.0042 21.0404C49.0813 21.0227 49.1522 20.9728 49.2069 20.898C49.2069 20.898 49.1002 20.8504 49.1987 20.5836C49.2337 20.4887 49.26 20.3885 49.2771 20.2852C49.3006 20.146 49.289 20.0004 49.2442 19.871C49.2442 19.871 49.1759 18.9926 48.2863 18.3092C48.2863 18.3092 48.1277 18.001 48.0721 17.9888L48.1176 18.5187C48.1176 18.5187 48.4075 18.4578 48.5898 18.6673C48.5898 18.6673 48.1341 18.5029 48.1222 18.5979C48.1222 18.6162 48.1559 18.8769 48.1559 18.8769C48.1559 18.8769 48.6591 18.7745 48.9334 19.1108C48.9334 19.1108 48.4075 18.816 48.1687 18.9756L48.2398 19.363C48.2398 19.363 48.7675 19.2204 49.092 19.5871C49.092 19.5871 48.5333 19.3045 48.2598 19.447L48.3683 19.8125C48.3683 19.8125 48.8851 19.6907 49.1531 19.994C49.1531 19.994 48.4831 19.7504 48.3975 19.8941C48.4442 20.036 48.5035 20.1697 48.5743 20.2925C48.5743 20.2925 48.9471 20.2145 49.0911 20.4143C49.0911 20.4143 48.6299 20.3181 48.6144 20.3814C48.6144 20.3814 48.8496 20.7591 49.0446 20.8687C48.8615 20.7821 48.6984 20.633 48.5716 20.4362C48.5595 20.5955 48.5826 20.7561 48.6381 20.898C48.6381 20.898 48.4394 20.7761 48.5151 20.3436C48.5151 20.3436 48.341 20.0403 48.34 19.9782C48.34 19.9782 48.2197 20.3887 48.2489 20.6787C48.2489 20.6787 48.1031 20.3753 48.31 19.8819L48.1942 19.5165C48.1942 19.5165 48.0119 20.0488 48.0256 20.3095C48.0256 20.3095 47.9126 19.9696 48.1714 19.4202L48.0985 19.0413C48.0031 19.2715 47.9305 19.5172 47.8825 19.7723C47.8825 19.7723 47.8278 19.4275 48.0803 18.9268L48.0538 18.6661C48.0538 18.6661 47.9262 18.9926 47.8962 19.0901C47.8661 19.1875 47.8433 19.1863 47.8433 19.1863C47.8644 18.9557 47.9332 18.7376 48.042 18.5565C48.042 18.5565 48.0119 18.0131 47.9873 18.0131Z" fill="#06AC9C"/>
<path opacity="0.1" d="M24.4497 14.5872C24.4497 14.5872 23.7068 17.3222 25.24 17.5707C25.3101 17.6173 25.3895 17.6328 25.4667 17.615C25.5438 17.5973 25.6148 17.5472 25.6693 17.472C25.6693 17.472 25.5626 17.4245 25.6611 17.159C25.6957 17.0638 25.722 16.9637 25.7395 16.8605C25.7625 16.7209 25.751 16.5751 25.7067 16.4451C25.7067 16.4451 25.6383 15.5667 24.7487 14.8833C24.7487 14.8833 24.5901 14.5763 24.5345 14.5641L24.58 15.0928C24.58 15.0928 24.869 15.0331 25.0522 15.2427C25.0522 15.2427 24.5965 15.077 24.5846 15.172C24.5846 15.1915 24.6183 15.451 24.6183 15.451C24.6183 15.451 25.1215 15.3499 25.3958 15.6849C25.3958 15.6849 24.869 15.3901 24.6311 15.5497L24.7022 15.9383C24.7022 15.9383 25.2299 15.7957 25.5535 16.1624C25.5535 16.1624 24.9957 15.8798 24.7222 16.0211L24.8307 16.3866C24.8307 16.3866 25.3475 16.2648 25.6155 16.5681C25.6155 16.5681 24.9446 16.3245 24.8599 16.4682C24.9065 16.6105 24.9659 16.7446 25.0367 16.8678C25.0367 16.8678 25.4095 16.7886 25.5526 16.9896C25.5526 16.9896 25.0923 16.8934 25.0759 16.9579C25.0759 16.9579 25.312 17.3344 25.507 17.4452C25.3237 17.3591 25.1605 17.2099 25.034 17.0128C25.0219 17.1721 25.045 17.3326 25.1005 17.4745C25.1005 17.4745 24.9018 17.3527 24.9775 16.9214C24.9775 16.9214 24.8025 16.6168 24.8025 16.5559C24.8025 16.5559 24.6821 16.9677 24.7113 17.2564C24.7113 17.2564 24.5655 16.9543 24.7715 16.4597L24.6566 16.0942C24.6566 16.0942 24.4743 16.6278 24.4871 16.8873C24.4871 16.8873 24.3741 16.5486 24.6329 15.9992L24.5609 15.6191C24.4655 15.8492 24.3929 16.0949 24.3449 16.35C24.3449 16.35 24.2902 16.0053 24.5427 15.5046L24.5162 15.2439C24.5162 15.2439 24.3886 15.5704 24.3586 15.669C24.3285 15.7677 24.3057 15.7641 24.3057 15.7641C24.3267 15.5337 24.3952 15.3156 24.5035 15.1342C24.5035 15.1342 24.478 14.5885 24.4497 14.5872Z" fill="#06AC9C"/>
<path opacity="0.1" d="M47.27 33.1389C47.27 33.1389 47.8434 35.9408 49.2033 34.9662C49.2806 34.9498 49.352 34.9011 49.4073 34.8272C49.4627 34.7532 49.4991 34.6578 49.5114 34.5545C49.5114 34.5545 49.4038 34.5971 49.3692 34.3035C49.3568 34.1993 49.3351 34.0974 49.3045 34.0002C49.2633 33.8686 49.1913 33.7583 49.0994 33.6858C49.0994 33.6858 48.6646 33.0219 47.641 33.1486C47.641 33.1486 47.3785 33.0195 47.3274 33.0524L47.5936 33.4495C47.5936 33.4495 47.8032 33.1778 48.043 33.2059C48.043 33.2059 47.5972 33.4239 47.631 33.508C47.6374 33.525 47.7786 33.7102 47.7786 33.7102C47.7786 33.7102 48.1432 33.24 48.5151 33.3021C48.5151 33.3021 47.9582 33.4678 47.8315 33.7809L48.0576 34.044C48.0576 34.044 48.4276 33.5202 48.8496 33.5701C48.8496 33.5701 48.2718 33.7699 48.1095 34.0964L48.3574 34.3145C48.3574 34.3145 48.722 33.8138 49.0766 33.8576C49.0766 33.8576 48.4267 34.1792 48.4167 34.3583C48.5163 34.4386 48.6228 34.5024 48.7339 34.5484C48.7339 34.5484 49.0073 34.1975 49.206 34.2475C49.206 34.2475 48.7886 34.5228 48.8032 34.5886C48.8032 34.5886 49.1577 34.7104 49.3637 34.6519C49.1769 34.7226 48.9795 34.7263 48.7913 34.6629C48.8499 34.8022 48.9376 34.9157 49.0438 34.9894C49.0438 34.9894 48.8287 35.0418 48.7047 34.6312C48.7047 34.6312 48.4313 34.5179 48.403 34.4667C48.403 34.4667 48.4823 34.8944 48.6309 35.1088C48.6309 35.1088 48.3811 34.9748 48.3365 34.4119L48.0858 34.2036C48.0858 34.2036 48.1678 34.7774 48.2891 34.9821C48.2891 34.9821 48.0503 34.792 48.0247 34.1439L47.8014 33.8905C47.8236 34.1534 47.8711 34.4114 47.9427 34.658C47.9427 34.658 47.7495 34.4144 47.7404 33.8138L47.6054 33.6213C47.6054 33.6213 47.6419 33.9868 47.6601 34.0903C47.6784 34.1939 47.6601 34.2121 47.6601 34.2121C47.5778 34.0076 47.5396 33.7764 47.5498 33.5445C47.5498 33.5445 47.291 33.1194 47.27 33.1389Z" fill="#06AC9C"/>
<path d="M74.3315 48.9443C74.5303 49.2514 74.7497 49.5336 74.9869 49.7874L76.7625 51.8097C77.0788 52.169 77.4005 52.5406 77.8016 52.7099C78.0389 52.8096 78.2902 52.8352 78.536 52.7848C78.7819 52.7343 79.0159 52.6091 79.2199 52.4188L79.1898 52.4054L79.2199 52.3786C78.92 52.2494 78.6128 52.1154 78.3658 51.8559C78.2641 51.7541 78.1785 51.6263 78.114 51.4799C78.0496 51.3335 78.0075 51.1715 77.9903 51.0032C77.9903 50.9861 77.9903 50.9703 77.9903 50.9532C77.9909 50.9071 77.9943 50.861 78.0003 50.8156C78.3829 50.772 78.7508 50.5988 79.0695 50.3124L79.0385 50.2978L79.0695 50.2722C78.1233 49.8665 77.468 48.68 77.1708 47.424C76.8737 46.1679 76.8728 44.8303 76.8409 43.5158C76.809 42.2013 76.736 40.8503 76.3113 39.6613C76.1518 39.2154 75.9467 38.7914 75.8692 38.309C75.8479 38.1658 75.8378 38.0201 75.8391 37.8741C75.8455 37.4051 75.9476 36.9336 76.0415 36.4755C76.2501 35.4525 76.4169 34.4151 76.541 33.3678C76.5898 32.9955 76.6169 32.6188 76.6221 32.2409C76.6307 31.8721 76.5864 31.5045 76.4918 31.1579C76.0743 29.7082 74.6232 29.0247 74.4017 27.5031C74.3757 27.2984 74.3647 27.0907 74.3689 26.883C74.3689 26.7685 74.3689 26.6552 74.3689 26.5419C74.3689 26.4286 74.3689 26.2983 74.3616 26.1862C74.2987 25.1154 73.8028 24.1858 73.3243 23.3172C72.7482 22.272 72.1394 21.1853 71.2543 20.6286C70.567 20.1936 69.6483 20.0499 68.8288 20.1473C68.4611 19.7233 68.058 19.3575 67.6275 19.057C67.0013 18.5916 66.3514 18.1336 65.6577 18.0312C64.7781 17.9021 63.9086 18.3529 63.0263 18.4284C61.8267 18.5319 60.6491 17.9411 59.4496 17.8193C58.25 17.6974 56.8691 18.2371 56.3332 19.8513C56.2075 20.2433 56.1311 20.6602 56.1071 21.0854C56.1016 21.167 56.098 21.2474 56.0953 21.329V21.3376C56.0863 21.6672 56.0933 21.9972 56.1162 22.3256V22.3633C56.1162 22.4291 56.1253 22.4949 56.1308 22.5607C56.1308 22.5802 56.1308 22.5985 56.1354 22.618C56.1354 22.6789 56.1454 22.7398 56.1509 22.8007L56.1563 22.858C56.1636 22.9347 56.1718 23.0114 56.1791 23.0882C56.193 23.2462 56.2183 23.4021 56.2548 23.5536C56.2771 23.6411 56.3097 23.7233 56.3514 23.7972C56.4817 24.0189 56.6777 24.0847 56.88 24.1261L57.0396 24.1566C57.0232 24.2005 57.0058 24.2443 56.9903 24.2894C56.6286 25.3085 56.4418 26.4227 56.4434 27.5506C56.4434 31.3833 58.5663 34.5605 61.34 35.1379L61.5068 35.4157C62.5295 37.1285 63.8129 39.4152 64.4236 41.061C63.7181 42.2318 62.8923 44.3077 62.6571 47.7894L62.308 48.8785C61.5761 50.2856 61.3874 52.3152 61.5761 54.2035C61.3701 55.2244 61.1349 56.5072 60.9717 57.5683C59.7585 57.2089 55.6176 56.3196 54.6387 55.4559L51.7675 53.648C51.7675 53.648 48.0304 50.1589 46.0196 51.3236C45.2512 50.0615 44.0918 48.7397 43.5923 48.2402C42.7355 47.3813 40.6044 44.0263 40.6044 44.0263L37.2656 38.1031C37.2565 37.4172 37.2018 36.8313 37.0614 36.5791C36.6677 35.8749 34.5831 34.3119 34.1665 34.6494C33.75 34.9868 33.4018 33.9184 33.4018 33.9184L33.3699 33.8953C33.2915 33.8344 33.0691 33.6663 32.7601 33.4445C32.7438 32.9501 32.753 32.4547 32.7874 31.9619C32.7938 31.8791 32.802 31.7962 32.8111 31.7183C33.9179 31.6649 34.9813 31.1297 35.8395 30.1942C36.6977 29.2587 37.3038 27.9741 37.5655 26.5358C37.5801 26.4591 37.5901 26.3799 37.602 26.3019C37.7514 26.3483 37.9072 26.3427 38.0545 26.2855C38.2018 26.2283 38.3357 26.1216 38.4433 25.9754C38.7349 25.5564 38.7477 24.9119 38.6547 24.3564C38.5618 23.8009 38.3813 23.2685 38.3357 22.7008C38.2783 21.9272 38.4825 21.1171 38.2947 20.3861C38.137 19.7624 37.7214 19.3092 37.2784 19.0132C36.8354 18.7171 36.3505 18.5441 35.8975 18.2749C35.4654 18.0191 35.0634 17.6755 34.615 17.4733C34.0335 17.2114 33.4082 17.2016 32.792 17.2211C32.4055 17.0128 32.0118 16.8142 31.5979 16.7521C31.1422 16.6826 30.6409 16.8008 30.2936 17.2065C30.0201 17.5305 29.7977 18.0507 29.4268 18.0678C29.2445 18.0763 29.0804 17.9557 28.9181 17.8522C28.4578 17.5573 27.8754 17.3904 27.4598 17.7815C27.1262 18.0934 27.004 18.6672 26.9466 19.202C26.8892 19.7368 26.8791 20.2984 26.6859 20.7772C26.5665 21.072 26.3851 21.312 26.2347 21.58C25.854 22.2603 25.6746 23.1045 25.7307 23.9507V23.9751C25.7088 23.8533 25.6878 23.74 25.6723 23.6206C25.6723 23.7107 25.6723 23.7997 25.6814 23.8898C25.7211 24.3078 25.7891 24.72 25.8847 25.1215L26.2621 26.8879C26.4535 27.7846 26.6494 28.6946 27.014 29.4925C27.1563 29.8069 27.3281 30.0956 27.5254 30.3514C27.8361 30.7874 28.2337 31.0956 28.6711 31.2395C28.8248 31.2856 28.983 31.2983 29.1396 31.2773C29.1396 31.3029 29.1351 31.3272 29.1314 31.3528C29.0977 31.3443 29.0631 31.3345 29.0312 31.3284C28.8831 31.2872 28.7299 31.2926 28.5836 31.3443C27.8636 31.6866 27.6448 32.7282 27.581 33.1375C27.5664 33.2423 27.5618 33.3057 27.5618 33.3057C27.5618 33.3057 27.5737 33.3666 27.5874 33.4701L27.581 33.5055C27.5664 33.609 27.5618 33.6736 27.5618 33.6736C27.5618 33.6736 27.5737 33.7345 27.5874 33.8405L27.3996 33.8466L24.2595 34.3948C23.5422 34.329 22.8595 34.3132 22.4939 34.4301C22.463 34.4392 22.4326 34.451 22.4028 34.4654C21.947 34.6762 19.8588 36.6022 17.9848 38.3748C17.9848 38.3261 17.9848 38.2786 17.9793 38.2323L17.4461 38.739C17.4461 38.7866 17.4461 38.8365 17.4461 38.8865C17.313 39.0083 17.1808 39.1374 17.0532 39.2605C16.4799 39.8087 15.9594 40.3033 15.5721 40.6822C15.0999 41.1353 14.8073 41.4216 14.8073 41.4216C14.8073 41.4216 14.6341 41.4972 14.5193 41.8541C14.3716 42.311 14.3206 43.2295 14.8538 45.0374C15.8036 48.2548 16.0114 50.4306 16.0114 50.4306C15.7537 50.4666 15.5008 50.5485 15.2594 50.6742C14.9304 50.8497 14.5867 51.1469 14.4436 51.6488C14.3518 51.9993 14.3495 52.3807 14.4372 52.7331C14.8766 54.8163 22.1494 66.6455 22.1494 66.6455L22.2405 66.6565C22.6135 66.7004 22.9887 66.7004 23.3617 66.6565C23.7017 66.6089 24.0198 66.5005 24.1656 66.2715C24.1656 66.2715 25.7781 69.0381 28.1461 67.1535C28.1297 69.6631 28.0823 71.5039 28.3804 72.431C28.8443 73.8709 28.8443 77.1492 28.8443 77.1492L29.2855 77.1699C29.2618 77.2918 29.2354 77.4136 29.2071 77.5354C29.0038 78.4333 28.7039 79.5187 28.3867 79.7782C27.8526 80.2168 28.106 87.7553 28.1279 88.4059C28.1279 88.4314 28.1279 88.4448 28.1279 88.4448L28.0969 91.4905V91.7341C28.0307 91.6152 27.9713 91.4898 27.9192 91.3589C27.9192 91.3589 27.0605 92.4553 27.045 94.77C27.0295 97.0847 27.0605 97.1626 27.0605 97.1626C27.0605 97.1626 30.5242 96.9836 31.1741 97.3027C31.824 97.6219 37.2592 97.025 37.2592 97.025C37.2592 97.025 37.4607 96.3257 36.881 95.7884C37.8052 95.6995 38.8133 95.4632 39.404 94.8906C40.7029 93.637 36.7834 92.66 36.51 92.4614C36.2365 92.2628 34.8821 90.6657 34.3224 90.0676C34.1532 89.9024 33.9533 89.8029 33.7445 89.78L33.8147 87.0499C34.6487 85.7939 35.552 78.8682 35.552 78.8682C35.8473 78.5393 35.9758 77.7389 36.0287 77.2504C36.1366 77.2025 36.2309 77.1116 36.2989 76.9898C36.3669 76.868 36.4053 76.7212 36.4088 76.5694C37.3631 76.612 38.5636 76.6022 38.7942 76.2965C39.188 75.775 39.1415 73.9976 39.1415 73.9976L38.5855 55.183L38.549 55.1111C38.6409 54.2499 38.6428 53.3757 38.5545 52.5138C39.8032 52.9901 40.7749 53.3142 40.7749 53.3142C40.7749 53.3142 42.6544 53.7771 43.9733 54.167C43.7574 54.4734 43.5944 54.8393 43.4957 55.239C42.3107 59.7465 49.0312 59.5602 49.0312 59.5602L52.2041 61.5215L59.6729 64.784C57.2729 63.8374 54.5311 62.7239 52.6653 61.9601C52.4816 61.885 52.2947 61.8244 52.1056 61.7786C50.3939 61.3644 48.6155 62.1977 47.5254 64.036C47.5126 64.0592 47.5008 64.0799 47.4871 64.1018C47.2261 64.5557 47.0806 65.1094 47.0721 65.6818C47.0636 66.2542 47.1924 66.8152 47.4397 67.2826C47.725 67.8223 48.1069 68.5399 48.5545 69.3744C47.6074 69.7569 46.0406 70.8229 46.9931 73.5639C48.3129 77.3636 51.8559 79.5333 51.8559 79.5333C51.8559 79.5333 54.172 80.4227 54.7727 81.4034C54.9413 81.6787 55.593 82.289 56.4453 83.0249C56.9922 83.7984 57.4206 84.304 57.6749 84.4161C58.6903 84.8632 60.6673 87.0085 62.0582 88.6178L61.8495 92.4626L61.8358 92.6941L61.7502 92.5966C61.7502 92.5966 61.1349 94.3022 59.352 94.8736C58.9944 94.9811 58.6777 95.2569 58.4597 95.6508L58.4533 95.6618L58.4004 95.7641L58.3603 95.7239C57.9957 96.4098 57.8262 97.4087 59.2025 97.684C61.3564 98.1129 63.76 97.5001 63.76 97.5001L65.9075 94.8467C66.1461 95.1151 66.4263 95.3094 66.7278 95.4157C68.333 95.903 72.8412 98.2347 72.8412 98.2347C72.8412 97.5805 76.8254 89.1648 76.8254 89.1648C82.2032 75.5594 76.355 65.3919 75.7088 64.3333L75.6514 64.2407L75.6012 63.1101L75.5903 62.8506C75.5903 62.8506 78.4925 61.1353 77.3805 60.3191C76.2684 59.5029 75.6486 55.5789 74.6013 53.9452C73.781 52.671 73.8284 49.713 73.7418 47.1925C73.8358 47.8148 74.0378 48.399 74.3315 48.898C74.3379 48.909 74.3452 48.9175 74.3516 48.9285L74.2741 48.8383C74.2932 48.8773 74.3115 48.9114 74.3315 48.9443ZM38.5709 47.8991C38.9446 48.4363 39.5972 49.1234 40.0293 49.5595C39.5115 49.2221 39.1087 48.937 38.7978 48.7068C38.7249 48.4363 38.6483 48.1659 38.5709 47.8991ZM27.5154 35.1501C27.4261 35.5078 27.2634 35.8248 27.0459 36.065L26.8636 35.0136C27.1025 35.0648 27.3249 35.1123 27.5154 35.1501ZM63.946 64.036C64.018 63.8289 64.0927 63.6255 64.1684 63.4269C64.488 63.2879 64.7698 63.026 64.9787 62.674C65.1375 63.4109 65.2551 64.1626 65.3305 64.9229C65.3305 64.9582 65.3305 64.9777 65.3305 64.9777C65.3266 65.2842 65.292 65.5887 65.2275 65.8829C65.1437 66.2386 64.9905 66.5736 64.7125 66.6138C64.5968 66.6297 64.0271 66.4457 63.1748 66.135C62.9278 66.0449 62.6562 65.9438 62.3663 65.8341C62.8212 65.7939 63.4537 65.4516 63.946 64.036ZM71.0784 38.3309C70.9079 37.9655 70.5525 37.7316 70.1177 37.5939C70.0384 37.5232 69.9153 37.4112 69.7585 37.2589C68.9929 36.5097 67.4643 34.8224 66.7634 32.6673C66.9588 32.5945 67.1496 32.5012 67.334 32.3883C67.6203 32.2129 67.8906 31.9942 68.1397 31.7366C68.2236 31.6488 68.3056 31.5575 68.384 31.4624C68.5849 31.2203 68.768 30.9531 68.9309 30.6645C68.9956 30.5427 69.0585 30.4269 69.1132 30.299C69.2026 30.1115 69.2835 29.917 69.3557 29.7167C69.5216 29.249 69.6496 28.7589 69.7376 28.2548C69.7731 28.0526 69.8041 27.8467 69.8287 27.6396C69.8533 27.4325 69.877 27.2242 69.8944 27.0146C69.951 26.2753 69.9726 25.5319 69.9591 24.7889C69.9591 24.7535 69.9591 24.717 69.9591 24.6817C69.9591 24.6683 69.9591 24.6549 69.9591 24.6427C69.9564 23.8895 69.8954 23.1387 69.7768 22.4023C69.8178 22.423 69.8588 22.4437 69.898 22.4681C69.9639 22.5113 70.0267 22.5622 70.0858 22.6204C70.0712 22.5924 70.0548 22.5644 70.0393 22.5363C70.3036 22.7654 70.5005 23.1223 70.6773 23.478C71.4874 25.1659 72.0047 27.0745 72.1915 29.0642C72.3782 31.0538 72.2296 33.0741 71.7565 34.9771C71.6235 35.4997 71.464 36.0199 71.4284 36.5693C71.2999 38.5319 72.7045 40.0292 73.2268 41.8736C73.4884 42.7983 73.5294 43.8228 73.564 44.8364C73.1703 42.2695 71.731 39.7429 71.0811 38.3358L71.0784 38.3309Z" fill="url(#paint0_linear)"/>
<path d="M36.2366 77.1396C36.2366 77.1396 36.1683 78.6624 35.7353 79.1497C35.7353 79.1497 34.8466 86.0328 34.0263 87.2815L33.8895 87.982L30.4714 87.4642L31.1551 81.373L31.7931 75.769L36.2366 77.1396Z" fill="#FFC1C8"/>
<path opacity="0.03" d="M36.2366 77.1396C36.2366 77.1396 36.1683 78.6624 35.7353 79.1497C35.7353 79.1497 34.8466 86.0328 34.0263 87.2815L33.8895 87.982L30.4714 87.4642L31.1551 81.373L31.7931 75.769L36.2366 77.1396Z" fill="black"/>
<path d="M32.553 87.3667L34.026 87.2802L33.9476 90.3795L32.8201 91.3894L30.7893 90.7949L31.5304 86.6528L32.553 87.3667Z" fill="#FF748F"/>
<path opacity="0.03" d="M32.553 87.3667L34.026 87.2802L33.9476 90.3795L32.8201 91.3894L30.7893 90.7949L31.5304 86.6528L32.553 87.3667Z" fill="black"/>
<path d="M32.8199 90.1418C32.8199 90.1418 33.9766 89.6862 34.5254 90.2807C35.0741 90.8752 36.4085 92.4602 36.6756 92.6587C36.9426 92.8573 40.7937 93.8283 39.5222 95.0758C38.2506 96.3232 34.9857 95.9675 34.9857 95.9675C34.9857 95.9675 32.85 95.1342 32.7908 95.0952C32.7315 95.0563 31.4235 94.2035 31.3825 94.1438C31.3415 94.0841 31.7526 90.1236 31.7526 90.1236L32.8199 90.1418Z" fill="#06DEDE"/>
<path opacity="0.03" d="M32.8199 90.1418C32.8199 90.1418 33.9766 89.6862 34.5254 90.2807C35.0741 90.8752 36.4085 92.4602 36.6756 92.6587C36.9426 92.8573 40.7937 93.8283 39.5222 95.0758C38.2506 96.3232 34.9857 95.9675 34.9857 95.9675C34.9857 95.9675 32.85 95.1342 32.7908 95.0952C32.7315 95.0563 31.4235 94.2035 31.3825 94.1438C31.3415 94.0841 31.7526 90.1236 31.7526 90.1236L32.8199 90.1418Z" fill="black"/>
<path d="M29.4687 48.9675L29.4004 54.6299L29.2454 66.7089L29.1543 66.8149C26.4426 69.9518 24.5284 66.6321 24.5284 66.6321C24.3844 66.8599 24.0727 66.9683 23.7373 67.0146C23.3704 67.0586 23.0013 67.0586 22.6344 67.0146L22.5432 67.0037C22.5432 67.0037 15.3862 55.239 14.9532 53.168C14.8673 52.8177 14.8696 52.4395 14.9596 52.0911C15.1009 51.5965 15.439 51.3017 15.7626 51.1275C16 51.002 16.2489 50.9201 16.5027 50.8838C16.5027 50.8838 16.2976 48.7214 15.3634 45.5235C14.8383 43.7266 14.8894 42.8141 15.0343 42.3561C15.1473 42.0016 15.3178 41.926 15.3178 41.926C15.3178 41.926 15.6058 41.6422 16.0698 41.1951C16.4553 40.8186 16.963 40.3265 17.5282 39.7819L18.0523 39.28C19.9856 37.4258 22.3153 35.2427 22.792 35.0161C22.8218 35.0016 22.8522 34.9898 22.8832 34.9808C23.8612 34.6653 27.1435 35.3207 27.1435 35.3207L29.4687 48.9675Z" fill="#06AC9C"/>
<path opacity="0.1" d="M29.4684 48.9675L29.4001 54.6299C26.1579 53.352 23.1436 44.8839 22.7462 44.2163C22.4062 43.6364 22.7553 37.1785 22.8838 34.9832C23.8619 34.6677 27.1441 35.3231 27.1441 35.3231L29.4684 48.9675Z" fill="black"/>
<path d="M66.6804 37.9399C66.6804 37.9399 64.151 39.6759 63.832 46.4981C63.832 46.4981 63.4218 49.9701 63.1939 50.5793C62.9661 51.1884 61.8723 56.9446 62.009 57.6451C62.009 57.6451 61.7811 58.3456 60.938 58.041C60.0949 57.7365 55.5374 56.7923 54.512 55.8786L51.6863 54.0817C51.6863 54.0817 46.1718 48.8737 45.0097 53.3508C43.8475 57.8278 50.4558 57.6475 50.4558 57.6475L53.5777 59.5967L63.0344 63.7668C63.0344 63.7668 64.2877 64.5282 65.1309 62.0917C65.6703 60.5568 66.3109 59.0891 67.045 57.706C67.045 57.706 68.9591 50.5183 68.9363 49.3001C68.9136 48.0818 70.9872 45.1885 70.9872 45.1885C70.9872 45.1885 71.3974 37.5135 68.0249 37.6658L66.6804 37.9399Z" fill="#FFC1C7"/>
<path opacity="0.03" d="M66.6804 37.9399C66.6804 37.9399 64.151 39.6759 63.832 46.4981C63.832 46.4981 63.4218 49.9701 63.1939 50.5793C62.9661 51.1884 61.8723 56.9446 62.009 57.6451C62.009 57.6451 61.7811 58.3456 60.938 58.041C60.0949 57.7365 55.5374 56.7923 54.512 55.8786L51.6863 54.0817C51.6863 54.0817 46.1718 48.8737 45.0097 53.3508C43.8475 57.8278 50.4558 57.6475 50.4558 57.6475L53.5777 59.5967L63.0344 63.7668C63.0344 63.7668 64.2877 64.5282 65.1309 62.0917C65.6703 60.5568 66.3109 59.0891 67.045 57.706C67.045 57.706 68.9591 50.5183 68.9363 49.3001C68.9136 48.0818 70.9872 45.1885 70.9872 45.1885C70.9872 45.1885 71.3974 37.5135 68.0249 37.6658L66.6804 37.9399Z" fill="black"/>
<path d="M39.9282 43.8655C40.0649 44.0787 40.703 44.5185 40.703 44.5185C40.703 44.5185 42.7994 47.8528 43.6426 48.7056C44.4857 49.5583 47.2429 52.8172 46.6851 54.0512C46.1273 55.2853 45.5002 55.01 45.5002 55.01L40.5663 50.4416C40.5663 50.4416 38.8344 48.7823 38.4817 47.9905C38.1289 47.1986 37.6951 45.5406 37.6951 45.5406L39.9282 43.8655Z" fill="#FFC1C8"/>
<path opacity="0.03" d="M39.9282 43.8655C40.0649 44.0787 40.703 44.5185 40.703 44.5185C40.703 44.5185 42.7994 47.8528 43.6426 48.7056C44.4857 49.5583 47.2429 52.8172 46.6851 54.0512C46.1273 55.2853 45.5002 55.01 45.5002 55.01L40.5663 50.4416C40.5663 50.4416 38.8344 48.7823 38.4817 47.9905C38.1289 47.1986 37.6951 45.5406 37.6951 45.5406L39.9282 43.8655Z" fill="black"/>
<path d="M37.1598 38.1702L40.7028 44.5197L37.5126 46.1802L36.1909 40.8649L37.1598 38.1702Z" fill="#DCE6F2"/>
<path opacity="0.03" d="M37.1598 38.1702L40.7028 44.5197L37.5126 46.1802L36.1909 40.8649L37.1598 38.1702Z" fill="black"/>
<path d="M38.0823 54.3583L38.7204 55.607L39.2673 74.3071C39.2673 74.3071 39.3128 76.0736 38.9254 76.5913C38.5381 77.1091 35.3706 76.7741 35.3706 76.7741C35.3706 76.7741 35.4845 57.7085 35.5301 57.343C35.5757 56.9775 38.0823 54.3583 38.0823 54.3583Z" fill="#575988"/>
<path opacity="0.1" d="M38.0823 54.3583L38.7204 55.607L39.2673 74.3071C39.2673 74.3071 39.3128 76.0736 38.9254 76.5913C38.5381 77.1091 35.3706 76.7741 35.3706 76.7741C35.3706 76.7741 35.4845 57.7085 35.5301 57.343C35.5757 56.9775 38.0823 54.3583 38.0823 54.3583Z" fill="black"/>
<path d="M33.8154 77.9971C33.6079 78.6789 33.3642 79.3401 33.0862 79.9755C33.0862 79.9755 32.4937 84.494 32.2412 84.9107C32.0589 85.2152 31.9751 87.4885 31.945 88.6738C31.9341 89.1027 31.9295 89.3889 31.9295 89.3889L28.4458 91.6086L28.4303 88.6751C28.4303 88.6751 28.4303 88.6616 28.4303 88.6361C28.4084 87.9892 28.1568 80.4969 28.6846 80.0608C28.9945 79.8038 29.2898 78.7207 29.4894 77.8326C29.6417 77.1468 29.7374 76.573 29.7374 76.573C29.7374 76.573 33.6076 76.2367 33.9302 76.791C34.0487 76.9884 33.9667 77.4684 33.8154 77.9971Z" fill="#FFC1C8"/>
<path opacity="0.1" d="M33.8153 77.9972C32.2457 77.9533 30.2787 77.8644 29.4839 77.8266C29.6361 77.1408 29.7318 76.567 29.7318 76.567C29.7318 76.567 33.602 76.2307 33.9247 76.785C34.0487 76.9885 33.9666 77.4685 33.8153 77.9972Z" fill="black"/>
<path d="M29.2406 50.2771C29.2406 50.2771 28.1696 57.8912 28.3747 62.7946C28.5798 67.6981 28.2152 71.3199 28.671 72.7538C29.1267 74.1877 29.1267 77.4441 29.1267 77.4441C29.1267 77.4441 35.3249 77.7487 35.9629 77.6268C36.601 77.505 36.5782 76.8654 36.5782 76.8654C36.5782 76.8654 36.1452 71.8072 36.5554 70.2235C36.9656 68.6398 36.8972 63.7972 36.8972 63.7972L38.629 56.0004C38.629 56.0004 39.1531 52.498 38.0593 51.0665C36.9656 49.6351 29.2406 50.2771 29.2406 50.2771Z" fill="#575988"/>
<path d="M66.0195 90.5099L65.7461 91.0459L64.0553 94.4083L62.6197 94.9869L61.5487 93.5859L61.6006 92.6613L61.8677 87.8602C61.8677 87.8602 55.2411 82.6497 54.6487 81.6751C54.0562 80.7005 51.7775 79.8173 51.7775 79.8173C51.7775 79.8173 48.291 77.6549 46.9921 73.8783C45.6932 70.1017 49.1569 69.5231 49.1569 69.5231L62.1685 86.1546L66.0195 90.5099Z" fill="#FFC1C7"/>
<path opacity="0.1" d="M65.7509 91.0447L64.0601 94.4071L62.6245 94.9857L61.5535 93.5847L61.6054 92.6601L62.784 94.0111L64.9944 90.5696L65.7509 91.0447Z" fill="black"/>
<path d="M67.6147 92.4591L63.4902 97.6062C63.4902 97.6062 61.1203 98.2153 59.0011 97.7889C57.6466 97.516 57.9073 96.5232 58.2637 95.8397L58.2701 95.8275C58.4835 95.4367 58.7957 95.1623 59.1487 95.0552C60.9025 94.4899 61.5077 92.7929 61.5077 92.7929L62.7838 94.2548L64.9941 90.812L66.6285 91.8378L67.6147 92.4591Z" fill="#575988"/>
<path d="M67.6146 92.5177L63.49 97.6672C63.49 97.6672 61.1202 98.2763 59.0009 97.85C57.6464 97.5771 57.816 96.5842 58.1724 95.9008C58.5822 96.335 59.0741 96.6087 59.5934 96.6914C60.7556 96.8437 62.5102 96.6914 62.5102 96.6914L66.6283 91.9L67.6146 92.5177Z" fill="white"/>
<path d="M33.5631 30.8254C33.2277 31.0495 33.0736 31.7415 33.0116 32.5309C32.9068 33.8783 33.0764 35.501 33.0764 35.501C33.0764 35.501 28.5189 33.8357 29.0056 33.5104C29.2855 33.324 29.434 31.9669 29.5097 30.8497C29.5662 30.0237 29.5826 29.3281 29.5826 29.3281C29.5826 29.3281 34.4746 30.2162 33.5631 30.8254Z" fill="#FFC1C8"/>
<path d="M69.8403 38.2165C69.8403 38.2165 64.3102 45.2008 64.4925 43.1712C64.5181 42.8885 64.4451 42.4975 64.3011 42.0358C63.7898 40.3887 62.376 37.8316 61.2704 35.9616C60.4592 34.5898 59.812 33.5872 59.812 33.5872C59.812 33.5872 66.6801 25.872 66.1332 30.2577C66.0192 31.2578 66.1234 32.2805 66.4331 33.2035C67.1176 35.3573 68.6344 37.0519 69.3918 37.7999C69.6653 38.0691 69.8403 38.2165 69.8403 38.2165Z" fill="#FFC1C7"/>
<path opacity="0.1" d="M65.3743 31.5966C65.2749 31.761 64.9067 32.3385 64.7973 32.4908C63.7582 33.9368 63.6197 36.0237 62.0018 36.0237C61.758 36.0239 61.5144 36.0032 61.2726 35.9616C60.4614 34.5898 59.8142 33.5872 59.8142 33.5872C59.8142 33.5872 66.6805 25.872 66.1336 30.2577C66.0041 31.2981 65.0853 30.6853 65.3743 31.5966Z" fill="black"/>
<path d="M67.713 28.1451C67.7131 29.6552 67.3783 31.1315 66.7506 32.3872C66.123 33.6429 65.2309 34.6217 64.1871 35.1997C63.1433 35.7777 61.9946 35.929 60.8865 35.6344C59.7783 35.3399 58.7604 34.6127 57.9614 33.5449C57.1625 32.4771 56.6184 31.1166 56.398 29.6355C56.1777 28.1544 56.2909 26.6192 56.7233 25.224C57.1558 23.8289 57.8881 22.6365 58.8276 21.7977C59.7671 20.9589 60.8717 20.5113 62.0016 20.5115C62.7524 20.5077 63.4964 20.7025 64.1906 21.0847C64.8849 21.467 65.5157 22.0291 66.0466 22.7387C66.5775 23.4483 66.9981 24.2914 67.2841 25.2193C67.5701 26.1472 67.7159 27.1415 67.713 28.1451Z" fill="#FFC1C7"/>
<path opacity="0.1" d="M69.8404 38.2165C69.8404 38.2165 64.3104 45.2008 64.4927 43.1712C64.5182 42.8885 64.4453 42.4975 64.3013 42.0358L65.1006 39.5164C66.0801 38.3698 67.3361 37.7339 68.6381 37.7256C68.8751 37.7253 69.1117 37.7469 69.3464 37.7902L69.392 37.7999C69.6654 38.0691 69.8404 38.2165 69.8404 38.2165Z" fill="black"/>
<path d="M76.342 89.3831C76.342 89.3831 72.4226 97.7476 72.4226 98.3981C72.4226 98.3981 67.9864 96.0834 66.4067 95.5961C64.8271 95.1088 63.3377 90.6829 63.3377 90.6829C63.3377 90.6829 59.1449 85.403 57.5042 84.6721C56.1123 84.052 49.4238 71.4419 47.4313 67.6373C47.1874 67.1717 47.0605 66.6145 47.069 66.0463C47.0775 65.478 47.221 64.9281 47.4787 64.4759L47.5161 64.4114C48.0433 63.5247 48.7417 62.8471 49.5358 62.4517C50.3299 62.0563 51.1897 61.958 52.0225 62.1673C52.2073 62.2128 52.3899 62.273 52.5694 62.3476C55.4387 63.533 60.4082 65.5699 62.9148 66.4897C63.7534 66.7979 64.314 66.977 64.4279 66.966C64.7013 66.9283 64.8517 66.6006 64.9347 66.2412C64.998 65.9488 65.032 65.6465 65.0359 65.3421C65.0359 65.3421 65.0359 65.3226 65.0359 65.2873C64.959 64.5127 64.8384 63.7471 64.6749 62.997C64.3823 61.6569 63.8755 60.0841 63.0342 59.3325C62.336 58.7099 61.7809 57.337 61.4902 55.7411C61.0991 53.586 61.1894 51.0216 62.0617 49.3428L62.9048 46.6846L64.3149 42.238L65.1006 39.7601C66.08 38.6134 67.3361 37.9775 68.6381 37.9692C68.875 37.969 69.1116 37.9905 69.3463 38.0338C69.9506 38.1459 70.4729 38.3883 70.6908 38.8659C71.3589 40.3278 72.8783 43.0079 73.1819 45.6881C73.4854 48.3682 73.1217 52.7539 74.1544 54.3791C75.1872 56.0042 75.7951 59.9014 76.8889 60.714C77.9827 61.5265 75.127 63.2309 75.127 63.2309L75.1379 63.4879L75.1872 64.6124C75.1872 64.6124 75.2072 64.6428 75.2437 64.7037C75.8799 65.7563 81.6287 75.8617 76.342 89.3831Z" fill="#F20F79"/>
<path d="M75.2483 64.7037C74.0506 65.0388 71.4309 65.7685 70.2624 66.0889L70.0573 66.1449C69.9889 66.1632 69.9124 66.1803 69.8294 66.1961C68.6554 66.4117 66.1087 66.3057 64.9429 66.2424C65.0062 65.95 65.0402 65.6477 65.044 65.3433C65.044 65.3433 65.044 65.3238 65.044 65.2885C65.9309 65.2117 68.0329 64.9876 69.834 64.493C69.9807 64.4528 70.1257 64.4101 70.2669 64.3712C70.4711 64.3078 70.6698 64.2408 70.8594 64.1701C72.4746 63.561 74.18 63.4806 75.1435 63.4928L75.1927 64.6172C75.1927 64.6172 75.2073 64.6428 75.2483 64.7037Z" fill="#575988"/>
<path d="M70.2582 64.3661V66.0887L70.0531 66.1447C69.9847 66.163 69.9081 66.1801 69.8252 66.1959V64.4977C69.9719 64.4526 70.1169 64.4099 70.2582 64.3661Z" fill="#F20F79"/>
<path opacity="0.1" d="M71.3746 67.6653C71.3746 67.6653 68.9364 75.1271 67.4552 75.858C65.974 76.589 62.2825 79.1777 62.2825 79.1777C62.2825 79.1777 64.4017 81.6751 66.6121 78.9341C68.8224 76.193 72.0127 68.8835 71.3746 67.6653Z" fill="black"/>
<path opacity="0.1" d="M74.0405 66.6627C74.0405 66.6627 74.2684 69.4951 73.9494 70.0129C73.6303 70.5307 74.0405 66.6627 74.0405 66.6627Z" fill="black"/>
<path opacity="0.1" d="M75.3625 68.5181C75.3625 68.5181 76.5931 85.7563 70.4861 85.8477C70.4861 85.8501 76.2057 78.2641 75.3625 68.5181Z" fill="black"/>
<path opacity="0.1" d="M76.9121 72.6602C76.9121 72.6602 78.6667 81.7057 76.3652 82.7412C76.3652 82.7436 77.5729 78.0533 76.9121 72.6602Z" fill="black"/>
<path opacity="0.1" d="M65.9969 70.3455C65.883 70.3455 61.2572 71.4114 62.2598 72.2642C63.2625 73.117 65.9969 70.3455 65.9969 70.3455Z" fill="black"/>
<path opacity="0.1" d="M69.187 58.1349C69.187 58.1349 72.9697 62.6119 72.2405 63.0992L69.187 58.1349Z" fill="black"/>
<path opacity="0.1" d="M68.8682 59.5663C68.8682 59.5663 71.0557 63.1601 70.8051 63.3733L68.8682 59.5663Z" fill="black"/>
<path opacity="0.1" d="M73.5396 59.0157C73.5396 59.0157 74.5422 60.6908 74.3827 61.0563L73.5396 59.0157Z" fill="black"/>
<path opacity="0.1" d="M74.5422 58.1349C74.5422 58.1349 75.9778 59.6248 75.6588 60.2059L74.5422 58.1349Z" fill="black"/>
<path d="M66.5666 39.9829C66.5666 39.9829 71.238 40.4702 71.0329 45.4955C70.8278 50.5208 67.3413 51.7999 67.3413 51.7999L62.8066 50.0639C62.8066 50.0639 64.8347 40.3179 66.5666 39.9829Z" fill="#FFC1C7"/>
<path opacity="0.1" d="M52.573 62.3475C55.4424 63.5329 60.4118 65.5698 62.9184 66.4896C62.7541 66.6015 62.5742 66.6663 62.3901 66.6799C62.206 66.6936 62.0218 66.6557 61.8492 66.5688L52.3925 62.3987L52.0225 62.1672C52.2085 62.2125 52.3924 62.2727 52.573 62.3475Z" fill="black"/>
<path opacity="0.1" d="M68.5763 49.9263C68.1324 50.7181 67.7414 51.5709 67.756 52.1045C67.7632 52.4883 67.5737 53.4665 67.3203 54.6251C66.6675 57.5349 65.7813 60.3418 64.6769 62.9969C64.3844 61.6568 63.8776 60.084 63.0363 59.3324C62.3381 58.7099 61.783 57.3369 61.4922 55.741C61.7137 54.5861 61.9242 53.6151 62.0108 53.3837C62.2387 52.7745 62.6489 49.3025 62.6489 49.3025C62.6874 48.4227 62.7736 47.5477 62.9068 46.6845C63.2377 44.5733 63.8001 43.1516 64.3169 42.2379C64.9404 41.1269 65.5018 40.7443 65.5018 40.7443L66.8463 40.4702C68.3958 40.4008 69.1432 41.976 69.5033 43.7022C69.9444 45.8476 69.5753 48.1428 68.5763 49.9263Z" fill="black"/>
<path d="M65.222 40.2546C65.222 40.2546 62.6926 41.9906 62.3735 48.8128C62.3735 48.8128 61.9634 52.2848 61.7355 52.8939C61.5076 53.503 60.4138 59.2593 60.5505 59.9597C60.5505 59.9597 60.3227 60.6602 59.4795 60.3557C58.6364 60.0511 54.0789 59.107 53.0535 58.1933L50.2279 56.3964C50.2279 56.3964 44.7133 51.1883 43.5512 55.6654C42.389 60.1425 48.9973 59.9622 48.9973 59.9622L52.1192 61.9114L61.576 66.0814C61.576 66.0814 62.8293 66.8429 63.6724 64.4064C63.883 63.7972 64.1081 63.2186 64.3278 62.6923C65.4653 59.9842 66.3765 57.117 67.0449 54.1426C67.3029 52.984 67.4879 52.0058 67.4806 51.622C67.4706 51.0885 67.8626 50.2345 68.301 49.4438C69.3036 47.6603 69.6682 45.3651 69.2216 43.2186C68.8616 41.4923 68.1105 39.9171 66.5646 39.9878L65.222 40.2546Z" fill="#FFC1C7"/>
<path opacity="0.1" d="M33.563 30.8253C33.2275 31.0495 33.0735 31.7415 33.0115 32.5309C32.9522 32.5309 32.893 32.5309 32.8338 32.5309C31.6083 32.534 30.4249 31.9338 29.5095 30.8448C29.566 30.0189 29.5824 29.3232 29.5824 29.3232C29.5824 29.3232 34.4745 30.2162 33.563 30.8253Z" fill="black"/>
<path d="M37.8472 25.5868C37.8472 26.9121 37.5532 28.2075 37.0024 29.3094C36.4515 30.4112 35.6685 31.27 34.7525 31.7772C33.8365 32.2843 32.8285 32.417 31.856 32.1585C30.8835 31.8999 29.9903 31.2618 29.2891 30.3247C28.588 29.3877 28.1106 28.1938 27.9171 26.894C27.7237 25.5943 27.823 24.2471 28.2024 23.0227C28.5819 21.7984 29.2244 20.7519 30.0488 20.0157C30.8732 19.2794 31.8425 18.8865 32.834 18.8865C34.1627 18.8903 35.4362 19.5975 36.3757 20.8532C37.3152 22.109 37.8444 23.811 37.8472 25.5868Z" fill="#FFC1C8"/>
<path opacity="0.1" d="M39.5408 51.8279C39.5408 51.8279 36.9202 53.2289 36.0999 53.7162C35.2795 54.2035 30.5853 53.0767 30.5853 53.0767C30.5853 53.0767 28.1471 51.432 28.3521 49.7874C28.5572 48.1427 26.3924 42.7544 26.3924 42.7544C26.3924 42.7544 26.3241 37.9728 27.2811 37.0591C28.2382 36.1454 27.8736 34.2267 27.8736 34.2267C27.8736 34.2267 27.8782 34.1633 27.8927 34.0598C27.952 33.6529 28.1662 32.6174 28.8763 32.2775C29.02 32.2258 29.1709 32.2204 29.3165 32.2616C29.9974 32.3993 31.1158 33.0766 32.041 33.7016C32.8066 34.2194 33.4401 34.7006 33.585 34.8127L33.616 34.8358C33.616 34.8358 33.9578 35.9018 34.368 35.5668C34.7782 35.2317 36.8291 36.785 37.2164 37.4855C37.6038 38.186 37.3304 41.4753 37.262 42.2976C37.1937 43.1199 37.6494 45.5564 38.1507 46.9549C38.652 48.3535 39.5408 51.8279 39.5408 51.8279Z" fill="black"/>
<path d="M39.5408 51.4625C39.5408 51.4625 36.9202 52.8635 36.0999 53.3508C35.2795 53.8381 30.5853 52.7112 30.5853 52.7112C30.5853 52.7112 28.1471 51.0665 28.3521 49.4219C28.5572 47.7773 26.3924 42.3889 26.3924 42.3889C26.3924 42.3889 26.3241 37.6073 27.2811 36.6936C28.2382 35.7799 27.8736 33.8612 27.8736 33.8612C27.8736 33.8612 27.8782 33.7979 27.8927 33.6943C27.952 33.2874 28.1662 32.2519 28.8763 31.912C29.02 31.8603 29.1709 31.8549 29.3165 31.8962C29.9974 32.0338 31.1158 32.7112 32.041 33.3361C32.8066 33.8539 33.4401 34.3351 33.585 34.4472L33.616 34.4703C33.616 34.4703 33.9578 35.5363 34.368 35.2013C34.7782 34.8663 36.8291 36.4195 37.2164 37.12C37.6038 37.8205 37.3304 41.1098 37.262 41.9321C37.1937 42.7544 37.6494 45.1909 38.1507 46.5895C38.652 47.988 39.5408 51.4625 39.5408 51.4625Z" fill="#DCE6F2"/>
<path d="M31.0566 46.7844C31.0566 46.7844 28.808 51.6574 28.4434 51.9218L28.5801 53.6273C28.5801 53.6273 31.7858 52.7331 31.9836 51.5356C32.1814 50.3381 32.0747 46.7235 32.0747 46.7235L31.0566 46.7844Z" fill="#575988"/>
<path opacity="0.2" d="M31.0566 46.7844C31.0566 46.7844 28.808 51.6574 28.4434 51.9218L28.5801 53.6273C28.5801 53.6273 31.7858 52.7331 31.9836 51.5356C32.1814 50.3381 32.0747 46.7235 32.0747 46.7235L31.0566 46.7844Z" fill="black"/>
<path opacity="0.1" d="M34.22 40.5762C34.22 40.5762 34.6183 42.6326 35.2454 43.3331C35.8725 44.0336 34.22 40.5762 34.22 40.5762Z" fill="black"/>
<path d="M30.312 45.9973C30.3694 46.135 32.2945 49.6374 34.3226 50.9312C36.3507 52.225 40.8744 53.749 40.8744 53.749C40.8744 53.749 44.5432 54.6627 45.1694 55.0123C45.7956 55.362 46.594 53.7941 42.6628 51.5562C38.7315 49.3183 37.9686 48.3278 37.9686 48.3278C37.9686 48.3278 34.5505 46.1021 34.0036 45.0057C33.4567 43.9092 30.312 45.9973 30.312 45.9973Z" fill="#FFC1C8"/>
<path opacity="0.1" d="M31.7476 63.0358C31.8159 62.9749 33.4566 60.6298 33.6617 61.6348C33.8668 62.6399 31.7476 63.0358 31.7476 63.0358Z" fill="black"/>
<path opacity="0.1" d="M32.7045 58.4065C32.6817 58.4979 32.4538 61.0867 31.793 61.3912L32.7045 58.4065Z" fill="black"/>
<path opacity="0.1" d="M33.3882 59.1095C33.3882 59.1095 32.7957 61.881 32.0437 62.0613L33.3882 59.1095Z" fill="black"/>
<path opacity="0.1" d="M30.3804 67.4217C30.3804 67.4217 31.383 67.4521 31.5197 66.5994L30.3804 67.4217Z" fill="black"/>
<path opacity="0.1" d="M31.7476 72.967C31.8843 72.9975 34.0263 74.8249 33.4794 75.1903C32.9325 75.5558 31.7476 72.967 31.7476 72.967Z" fill="black"/>
<path opacity="0.1" d="M31.9415 88.3925V88.6739C31.9305 89.1027 31.926 89.389 31.926 89.389L28.4423 91.6086L28.4268 88.6751C28.4268 88.6751 28.4268 88.6617 28.4268 88.6361V88.4375L29.8213 88.4972L31.9415 88.3925Z" fill="black"/>
<path d="M32.593 92.6575L29.6872 94.1438L28.3828 93.1132L28.3965 91.7024L28.4266 88.6739L29.8212 88.7336L31.9413 88.6349V90.7559L32.593 92.6575Z" fill="#FF748F"/>
<path opacity="0.1" d="M32.5906 92.6588L29.6847 94.145L28.3804 93.1144L28.394 91.7037C28.5833 92.0352 28.8251 92.3065 29.1022 92.4982C29.3793 92.6899 29.6847 92.7971 29.9965 92.8123C29.9965 92.8123 31.0191 91.1067 31.6417 90.6121C31.6859 90.5767 31.7351 90.5537 31.7861 90.5445C31.8372 90.5353 31.8892 90.54 31.9388 90.5585V90.7571L32.5906 92.6588Z" fill="black"/>
<path d="M29.9992 93.0549C29.9992 93.0549 28.8143 93.0756 28.22 91.5686C28.22 91.5686 27.3751 92.6589 27.3596 94.9578C27.3441 97.2566 27.3751 97.3358 27.3751 97.3358C27.3751 97.3358 30.785 97.1579 31.423 97.4747C32.061 97.7914 37.4133 97.1969 37.4133 97.1969C37.4133 97.1969 37.7688 95.9482 36.1527 95.5121C34.5367 95.0759 33.2022 92.7771 33.1576 92.6784C33.1129 92.5797 32.268 90.3637 31.6454 90.851C31.0229 91.3383 29.9992 93.0549 29.9992 93.0549Z" fill="#06DEDE"/>
<path opacity="0.1" d="M33.1417 18.1848L32.8018 18.1227L33.0141 18.1154L33.1417 18.1848Z" fill="black"/>
<path opacity="0.1" d="M37.8469 25.587C37.847 26.1067 37.8021 26.6247 37.7129 27.1305C37.6368 27.1043 37.564 27.0632 37.4968 27.0087C37.3993 26.9246 37.3018 26.8089 37.1869 26.8223C37.1196 26.8365 37.0565 26.8753 37.0046 26.9344C36.465 27.4619 36.064 28.3293 35.4077 28.4974C35.4735 28.2407 35.4823 27.964 35.4332 27.7007C35.294 27.8877 35.1233 28.0274 34.9353 28.108C34.7474 28.1885 34.5477 28.2076 34.3531 28.1636C34.4005 28.0115 34.406 27.8418 34.3686 27.6848C33.9065 28.0308 33.4253 28.3293 32.9294 28.5778C32.912 28.456 32.8956 28.3439 32.8783 28.227C32.1801 28.6826 32.2348 30.2285 31.5366 30.6842C31.1209 30.9558 30.5339 30.7609 30.2468 31.2507C30.2359 31.2701 30.2259 31.2896 30.2158 31.3103C29.4698 30.7004 28.8561 29.8402 28.4357 28.8152C28.0153 27.7902 27.8029 26.636 27.8195 25.4674C27.8361 24.2987 28.0812 23.1561 28.5303 22.1532C28.9795 21.1503 29.6172 20.3218 30.38 19.7502C31.1429 19.1785 32.0043 18.8835 32.8789 18.8945C33.7534 18.9054 34.6106 19.222 35.3652 19.8127C36.1199 20.4034 36.7458 21.2477 37.1809 22.2617C37.6159 23.2757 37.8448 24.4242 37.845 25.5931L37.8469 25.587Z" fill="black"/>
<path d="M33.1417 17.9399C32.7206 17.7072 32.2931 17.4733 31.8401 17.4038C31.3871 17.3344 30.8985 17.4526 30.5567 17.8558C30.2833 18.1774 30.0691 18.694 29.7045 18.7086C29.5267 18.7171 29.3627 18.5977 29.2032 18.4942C28.7474 18.2018 28.1777 18.0361 27.7666 18.4235C27.4385 18.7342 27.3155 19.3043 27.2617 19.8367C27.2079 20.369 27.1951 20.9331 27.0056 21.4021C26.888 21.6945 26.7093 21.9333 26.5617 22.2001C26.1863 22.878 26.0099 23.7162 26.0658 24.5562C26.1039 24.9715 26.1704 25.3814 26.2645 25.7805L26.6364 27.536C26.8251 28.4278 27.0174 29.3317 27.3765 30.1248C27.7357 30.9179 28.288 31.6001 28.9625 31.8047C29.3691 31.9266 29.8613 31.8267 30.0891 31.3601C30.1475 31.2383 30.1848 31.1079 30.2486 30.9946C30.5312 30.5073 31.1228 30.701 31.5384 30.4293C32.2366 29.9737 32.1819 28.4278 32.8801 27.9721L32.9321 28.3218C33.4275 28.0729 33.9083 27.7748 34.3704 27.43C34.4077 27.587 34.4025 27.7564 34.3558 27.9088C34.5503 27.9522 34.7497 27.9328 34.9375 27.8523C35.1252 27.7717 35.2958 27.6324 35.435 27.4459C35.4842 27.7092 35.4753 27.9858 35.4095 28.2426C36.0658 28.0733 36.4669 27.2059 37.0065 26.6784C37.0586 26.6201 37.1216 26.5818 37.1888 26.5675C37.3045 26.5541 37.4011 26.6698 37.4987 26.7527C37.6676 26.8897 37.8663 26.9462 38.0623 26.9128C38.2584 26.8794 38.4401 26.7581 38.5779 26.5687C38.865 26.1521 38.8778 25.5113 38.7857 24.9582C38.6936 24.4051 38.5123 23.8776 38.4731 23.3136C38.4156 22.5448 38.6162 21.742 38.432 21.0111C38.2762 20.391 37.8678 19.9414 37.4294 19.6466C36.991 19.3518 36.5179 19.18 36.0704 18.9157C35.6456 18.6611 35.25 18.32 34.8089 18.1189C34.1708 17.8278 33.4772 17.8509 32.8036 17.8753" fill="#794F6A"/>
<path d="M33.2288 40.6321C33.2288 40.6321 33.958 34.0743 27.7142 34.3983L24.5696 34.9575C24.5696 34.9575 27.5693 35.6787 28.2912 35.7847L28.3678 35.7993C29.0359 35.9626 31.3456 35.7591 33.2288 40.6321Z" fill="#06AC9C"/>
<path opacity="0.1" d="M29.241 66.7845V66.709C31.8014 63.7498 29.241 66.7845 29.241 66.7845Z" fill="black"/>
<path d="M23.7324 67.0147C23.3655 67.0586 22.9964 67.0586 22.6294 67.0147L14.9592 52.0936C15.1005 51.599 15.4387 51.3042 15.7623 51.13L23.7324 67.0147Z" fill="#575988"/>
<path d="M18.7585 51.0387L18.3939 51.6173C18.3939 51.6173 15.6285 45.4773 15.0342 42.3586C15.1472 42.0041 15.3177 41.9286 15.3177 41.9286C15.3177 41.9286 15.6057 41.6447 16.0696 41.1976C16.2419 42.6644 16.8298 46.2509 18.7585 51.0387Z" fill="#575988"/>
<path d="M20.7864 49.1479L20.0573 49.6961C18.0666 46.5823 17.897 41.3511 17.9152 39.2667L18.4403 38.7623C18.5114 41.4997 20.7864 49.1479 20.7864 49.1479Z" fill="#575988"/>
<path opacity="0.1" d="M22.7008 48.6021C22.6781 48.998 21.8349 53.0182 23.0654 53.6882C24.296 54.3583 22.7008 48.6021 22.7008 48.6021Z" fill="black"/>
<path opacity="0.1" d="M25.3442 55.5157C25.3898 55.7289 25.8 62.6729 26.6887 62.1246C27.5774 61.5764 27.0989 53.6578 27.0989 53.6578L25.3442 55.5157Z" fill="black"/>
<path opacity="0.1" d="M67.7132 28.1453C67.7151 30.1171 67.1439 32.0128 66.12 33.4325C65.7029 33.5505 65.2728 33.5605 64.853 33.4617C64.6384 33.4254 64.4343 33.3159 64.2605 33.1437C64.0932 32.9373 63.9621 32.684 63.8768 32.4018C63.5441 31.4455 63.3736 30.3405 62.9069 29.5219C62.4403 28.7032 61.4932 28.3438 61.0429 29.1832C60.7977 29.6388 60.7567 30.3393 60.4295 30.6548C60.0366 31.0349 59.518 30.5878 59.2127 30.0457C58.3103 28.462 58.6193 25.3481 56.8984 24.9108L56.8291 24.895C57.3809 23.3223 58.3176 22.0481 59.4843 21.2828C60.651 20.5175 61.9781 20.3069 63.2465 20.6857C64.5149 21.0645 65.6487 22.01 66.4608 23.3662C67.2729 24.7224 67.7147 26.4082 67.7132 28.1453Z" fill="black"/>
<path d="M56.9893 24.7975C56.7103 24.7256 56.3868 24.7353 56.1999 24.4137C56.0896 24.2237 56.0577 23.9605 56.0313 23.7108C55.9192 22.6314 55.8581 21.4729 56.1799 20.4946C56.7076 18.8902 58.0657 18.3541 59.2461 18.4735C60.4265 18.5929 61.585 19.1813 62.7654 19.0827C63.6331 19.0071 64.489 18.5588 65.354 18.6867C66.0386 18.7891 66.6766 19.2435 67.2919 19.7076C67.8679 20.1413 68.4567 20.6079 68.8651 21.3608C69.4649 22.4633 69.5779 23.9861 69.5943 25.4151C69.6143 27.0926 69.5259 28.8347 68.9991 30.3113C68.2353 32.4542 66.5317 33.7297 64.9439 33.3459C64.7292 33.3096 64.5252 33.2001 64.3514 33.028C64.1846 32.8212 64.0539 32.5679 63.9686 32.286C63.635 31.3285 63.4645 30.2248 62.9978 29.4049C62.5311 28.585 61.5841 28.2281 61.1338 29.0674C60.8886 29.5218 60.8476 30.2235 60.5204 30.5391C60.1275 30.9179 59.6089 30.4708 59.3035 29.9299C58.4012 28.345 58.7102 25.2336 56.9893 24.7975Z" fill="#945B79"/>
<path d="M70.8607 21.256C71.7293 21.8103 72.3318 22.8897 72.8979 23.9289C73.3691 24.7926 73.8568 25.716 73.9188 26.7808C73.9434 27.2169 73.8951 27.6604 73.957 28.0892C74.1749 29.6035 75.5977 30.282 76.0134 31.7244C76.2066 32.4042 76.1455 33.1608 76.0608 33.8795C75.9389 34.9193 75.7749 35.9494 75.5695 36.9653C75.4464 37.5745 75.307 38.208 75.4008 38.8268C75.4729 39.3068 75.6743 39.7283 75.8347 40.1669C76.2531 41.3498 76.3251 42.6911 76.357 43.9983C76.3889 45.3055 76.388 46.6358 76.6806 47.8833C76.9732 49.1308 77.6185 50.31 78.5491 50.7133C78.2366 50.9981 77.8742 51.1701 77.4973 51.2128C77.4417 51.6209 77.6158 52.0363 77.8619 52.2946C78.108 52.5528 78.4088 52.6868 78.7023 52.8148C78.502 53.0037 78.2716 53.1279 78.0294 53.1778C77.7871 53.2277 77.5394 53.2018 77.3059 53.1023C76.9167 52.9317 76.5949 52.5662 76.2841 52.2081L74.5368 50.1992C74.3033 49.9466 74.0876 49.666 73.8923 49.361C72.7621 47.4837 73.4366 44.6391 72.8058 42.3841C72.2917 40.5506 70.9099 39.0619 71.0366 37.1115C71.0712 36.5658 71.228 36.0492 71.3593 35.5278C71.8248 33.6361 71.971 31.6301 71.7874 29.6538C71.6038 27.6776 71.095 25.7803 70.2974 24.0982C70.0978 23.684 69.8663 23.2674 69.5336 23.0542C69.0277 22.7313 68.3049 22.8702 68.0177 22.2258C67.8655 21.8859 67.8354 21.2877 67.8218 20.9064C68.7497 20.6225 69.993 20.7017 70.8607 21.256Z" fill="#945B79"/>
<path opacity="0.1" d="M26.4719 41.8822C26.8985 38.1348 30.4032 36.7814 32.2635 39.6455C32.8013 40.4763 33.278 41.3863 33.5478 42.2964C34.4593 45.3725 34.5277 45.6466 34.5277 45.6466C34.5277 45.6466 28.8992 47.1085 28.9448 48.2049L26.3926 42.7532C26.3926 42.7532 26.4117 42.4121 26.4719 41.8822Z" fill="black"/>
<path d="M26.4719 41.5167C26.8985 37.7694 30.4032 36.4159 32.2635 39.28C32.8013 40.1108 33.278 41.0209 33.5478 41.9309C34.4593 45.007 34.5277 45.2811 34.5277 45.2811C34.5277 45.2811 28.8992 46.743 28.9448 47.8394L26.3926 42.3877C26.3926 42.3877 26.4117 42.0466 26.4719 41.5167Z" fill="#DCE6F2"/>
<path opacity="0.1" d="M28.0559 36.7083C28.1243 36.8605 30.8132 41.2462 32.226 41.8712C33.6388 42.4962 28.0559 36.7083 28.0559 36.7083Z" fill="black"/>
<path opacity="0.1" d="M16.5027 50.8864C16.5027 50.8864 23.6123 62.0942 24.5238 66.6322L16.5027 50.8864Z" fill="black"/>
<path opacity="0.1" d="M16.7761 40.5311C16.7761 40.5311 18.3257 51.2517 21.3336 55.7593C24.3415 60.2668 27.4406 67.9418 27.4406 67.9418" stroke="black" stroke-width="2" stroke-miterlimit="10"/>
<g opacity="0.1">
<path opacity="0.1" d="M38.744 24.9338C38.7501 25.2902 38.6579 25.637 38.4851 25.9084C38.3473 26.0978 38.1656 26.2191 37.9695 26.2525C37.7735 26.2859 37.5748 26.2295 37.4059 26.0924C37.3084 26.0096 37.2117 25.8938 37.096 25.9072C37.0288 25.9215 36.9658 25.9598 36.9137 26.0181C36.4005 26.52 36.0122 27.3289 35.4097 27.5519C35.431 27.7671 35.4148 27.986 35.3623 28.1914C36.0186 28.0221 36.4196 27.1547 36.9592 26.6272C37.0114 26.5689 37.0744 26.5306 37.1415 26.5163C37.2573 26.5029 37.3539 26.6187 37.4515 26.7015C37.6204 26.8386 37.8191 26.895 38.0151 26.8616C38.2111 26.8282 38.3929 26.7069 38.5307 26.5176C38.8123 26.1034 38.8296 25.4796 38.744 24.9338Z" fill="black"/>
<path opacity="0.1" d="M38.3803 22.6484C38.3876 22.7483 38.4004 22.847 38.4149 22.9457C38.4149 22.3365 38.5234 21.703 38.4149 21.1183C38.4168 21.6153 38.342 22.1416 38.3803 22.6484Z" fill="black"/>
<path opacity="0.1" d="M35.3442 26.7806C35.2049 26.9672 35.0343 27.1065 34.8466 27.187C34.6589 27.2676 34.4595 27.2869 34.265 27.2436C34.3117 27.0912 34.3168 26.9217 34.2796 26.7648C33.8174 27.1096 33.3367 27.4077 32.8412 27.6565L32.7893 27.3069C32.0911 27.7625 32.1458 29.3085 31.4476 29.7641C31.0319 30.0358 30.4449 29.8396 30.1578 30.3294C30.094 30.4402 30.0566 30.573 29.9983 30.6949C29.7704 31.1614 29.2782 31.2626 28.8717 31.1395C28.1954 30.9349 27.6439 30.2526 27.2857 29.4596C26.9275 28.6665 26.7342 27.7625 26.5455 26.8708L26.1737 25.1153C26.1126 24.8229 26.0506 24.5305 26.0105 24.2321C26.0105 24.3222 26.0105 24.4111 26.0205 24.5001C26.0586 24.9154 26.1251 25.3253 26.2192 25.7244L26.5911 27.4799C26.7798 28.3717 26.9721 29.2756 27.3313 30.0687C27.6904 30.8618 28.2427 31.544 28.9173 31.7486C29.3238 31.8705 29.816 31.7706 30.0439 31.304C30.1022 31.1822 30.1396 31.0518 30.2034 30.9385C30.4859 30.4512 31.0775 30.6449 31.4931 30.3732C32.1913 29.9176 32.1366 28.3717 32.8349 27.916L32.8868 28.2657C33.3813 28.0166 33.8612 27.7186 34.3224 27.3739C34.3597 27.5309 34.3545 27.7003 34.3078 27.8527C34.4928 27.8936 34.6822 27.8778 34.8619 27.8064C35.0416 27.7351 35.2069 27.6101 35.3451 27.4409C35.384 27.2238 35.3837 26.9975 35.3442 26.7806Z" fill="black"/>
</g>
<path opacity="0.1" d="M33.5851 34.8127C33.0947 35.1903 31.9554 36.0309 31.7248 35.8872C31.4787 35.7349 28.7934 34.4789 27.8965 34.0598C27.9557 33.6529 28.1699 32.6174 28.88 32.2775C29.0237 32.2258 29.1746 32.2204 29.3202 32.2616L32.0438 33.7016C32.8067 34.2194 33.4402 34.7006 33.5851 34.8127Z" fill="black"/>
<path d="M33.5851 34.4472C33.0947 34.8248 31.9554 35.6654 31.7248 35.5217C31.4787 35.3694 28.7934 34.1134 27.8965 33.6943C27.9557 33.2874 28.1699 32.2519 28.88 31.912C29.0237 31.8603 29.1746 31.8549 29.3202 31.8962L32.0438 33.3361C32.8067 33.8539 33.4402 34.3351 33.5851 34.4472Z" fill="#DCE6F2"/>
<path opacity="0.1" d="M69.5971 25.2701C69.5706 26.643 69.4312 28.016 69.0037 29.216C68.2398 31.3589 66.5363 32.6344 64.9484 32.2506C64.7338 32.2143 64.5298 32.1048 64.356 31.9327C64.1891 31.7259 64.0584 31.4726 63.9731 31.1908C63.6395 30.2332 63.4691 29.1295 63.0024 28.3096C62.5357 27.4897 61.5886 27.1328 61.1384 27.9721C60.8932 28.4266 60.8522 29.1283 60.5249 29.4438C60.1321 29.8227 59.6134 29.3756 59.3081 28.8347C58.4057 27.2509 58.7147 24.1359 56.9938 23.6997C56.7149 23.6279 56.3913 23.6376 56.2044 23.316C56.0941 23.126 56.0622 22.8628 56.0358 22.6131C56.0048 22.3195 55.9784 22.0198 55.9629 21.7189C55.9312 22.384 55.9557 23.0517 56.0358 23.7095C56.0622 23.9592 56.0941 24.2224 56.2044 24.4124C56.3913 24.734 56.7149 24.7243 56.9938 24.7962C58.7147 25.2323 58.4057 28.3437 59.3081 29.9311C59.6125 30.4659 60.1284 30.913 60.5249 30.5402C60.8522 30.2247 60.8895 29.523 61.1384 29.0686C61.5886 28.2292 62.5357 28.5874 63.0024 29.406C63.4691 30.2247 63.6404 31.3296 63.9731 32.2872C64.0584 32.5691 64.1891 32.8224 64.356 33.0291C64.5298 33.2012 64.7338 33.3107 64.9484 33.3471C66.5363 33.7308 68.2398 32.4553 69.0037 30.3124C69.5305 28.8359 69.6189 27.0938 69.5989 25.4163C69.5971 25.3627 69.5971 25.3139 69.5971 25.2701Z" fill="black"/>
<g opacity="0.1">
<path opacity="0.1" d="M75.5579 31.1179C75.7511 31.7977 75.69 32.5542 75.6053 33.273C75.4833 34.3119 75.3193 35.3412 75.114 36.3563C74.9909 36.9655 74.8515 37.599 74.9453 38.2178C75.0173 38.6978 75.2188 39.1193 75.3792 39.5579C75.7976 40.7408 75.8696 42.0821 75.9015 43.3893C75.9334 44.6965 75.9325 46.0268 76.2251 47.2743C76.4146 48.1245 76.7768 48.8878 77.2715 49.4793C77.0101 49.0114 76.8104 48.4874 76.6808 47.9297C76.3882 46.6822 76.3882 45.3519 76.3572 44.0447C76.3262 42.7375 76.2533 41.3962 75.835 40.2145C75.6782 39.7723 75.4704 39.3508 75.4011 38.8745C75.3099 38.2556 75.4467 37.6209 75.5697 37.0118C75.7753 35.9938 75.9393 34.9616 76.061 33.9199C76.1458 33.2011 76.2068 32.4433 76.0136 31.7636C75.8577 31.219 75.5579 30.789 75.2325 30.3711C75.3687 30.5964 75.4785 30.8483 75.5579 31.1179Z" fill="black"/>
<path opacity="0.1" d="M78.549 50.7622C78.3054 50.6545 78.0764 50.4949 77.8709 50.2896C77.613 50.4688 77.3311 50.5781 77.0414 50.6112C76.9858 51.0193 77.1599 51.4347 77.406 51.693C77.4549 51.7456 77.5067 51.7932 77.561 51.8355C77.4975 51.6569 77.4762 51.4568 77.4999 51.2617C77.8757 51.2174 78.2368 51.0454 78.549 50.7622Z" fill="black"/>
<path opacity="0.1" d="M69.075 22.4549C68.7278 22.2331 68.2784 22.2283 67.9375 22.0394C67.9568 22.1241 67.9828 22.2058 68.015 22.2831C68.3021 22.9263 69.0249 22.7874 69.5308 23.1115C69.5947 23.1543 69.6557 23.2045 69.7131 23.2613C69.555 22.9246 69.3354 22.647 69.075 22.4549Z" fill="black"/>
<path opacity="0.1" d="M77.9491 52.4373C77.5999 52.6363 77.2088 52.6609 76.8471 52.5067C76.4579 52.3362 76.1361 51.9707 75.8253 51.6125L74.078 49.6037C73.995 49.5086 73.913 49.4124 73.8328 49.3149C73.851 49.3478 73.8692 49.3819 73.8893 49.4148C74.0843 49.7202 74.3 50.0007 74.5337 50.253L76.281 52.2631C76.5919 52.62 76.9136 52.9867 77.3028 53.1573C77.5364 53.2567 77.7841 53.2823 78.0264 53.2322C78.2687 53.1821 78.499 53.0577 78.6992 52.8686C78.4354 52.7719 78.183 52.6268 77.9491 52.4373Z" fill="black"/>
<path opacity="0.1" d="M72.4423 23.321C72.9135 24.1848 73.4012 25.1082 73.4631 26.173C73.4878 26.6091 73.4395 27.0525 73.5014 27.4814C73.5999 28.1672 73.9471 28.6826 74.3354 29.1735C74.1478 28.8726 74.0179 28.5151 73.9572 28.1319C73.8952 27.7019 73.9435 27.2584 73.9189 26.8223C73.8569 25.7575 73.372 24.8341 72.898 23.9716C72.5553 23.3417 72.198 22.6985 71.7778 22.1649C72.0121 22.5353 72.2299 22.93 72.4423 23.321Z" fill="black"/>
</g>
<path opacity="0.1" d="M68.443 20.7955C68.443 20.7955 67.8961 22.0138 69.4456 23.0286L69.5368 22.7033L68.443 20.7955Z" fill="black"/>
<path d="M68.3519 20.7955C68.3519 20.7955 67.805 22.0138 69.3546 23.0286L69.4457 22.7033L68.3519 20.7955Z" fill="#F20F79"/>
<path d="M89.9278 89.7473C89.9278 89.7473 90.4291 90.6232 89.6972 91.9402C88.9653 93.2571 88.3619 94.3767 88.6034 95.2014C88.6034 95.2014 89.7081 92.7466 90.6087 92.7125C91.5093 92.6784 90.9168 91.2238 89.9278 89.7473Z" fill="#06AC9C"/>
<path opacity="0.1" d="M89.9281 89.7473C89.9719 89.8318 90.0065 89.9241 90.0311 90.0214C90.908 91.3993 91.3747 92.6845 90.5316 92.7162C89.7468 92.7466 88.8052 94.6227 88.5791 95.0966C88.5864 95.1332 88.5955 95.1685 88.6055 95.2051C88.6055 95.2051 89.7103 92.7503 90.6109 92.7162C91.5114 92.6821 90.9171 91.2238 89.9281 89.7473Z" fill="black"/>
<path d="M90.8597 90.8631C90.8597 91.1713 90.8332 91.4211 90.8013 91.4211C90.7694 91.4211 90.7439 91.1774 90.7439 90.8631C90.7439 90.5488 90.7758 90.6999 90.8077 90.6999C90.8396 90.6999 90.8597 90.5549 90.8597 90.8631Z" fill="#FFD037"/>
<path d="M91.1784 91.231C90.9761 91.3784 90.7993 91.4674 90.7847 91.4296C90.7701 91.3918 90.9205 91.242 91.1228 91.0946C91.3252 90.9472 91.2459 91.0544 91.2614 91.0946C91.2769 91.1348 91.3817 91.0836 91.1784 91.231Z" fill="#FFD037"/>
<path d="M87.2802 89.7473C87.2802 89.7473 86.7789 90.6232 87.5108 91.9402C88.2427 93.2571 88.8462 94.3767 88.6046 95.2014C88.6046 95.2014 87.5008 92.7466 86.5993 92.7125C85.6978 92.6784 86.2949 91.2238 87.2802 89.7473Z" fill="#06AC9C"/>
<path opacity="0.1" d="M87.28 89.7473C87.2363 89.8318 87.2016 89.9241 87.177 90.0214C86.3001 91.3993 85.8334 92.6845 86.6766 92.7162C87.4614 92.7466 88.403 94.6227 88.629 95.0966C88.6215 95.1335 88.6124 95.1697 88.6017 95.2051C88.6017 95.2051 87.4978 92.7503 86.5964 92.7162C85.6949 92.6821 86.2946 91.2238 87.28 89.7473Z" fill="black"/>
<path d="M86.3521 90.8631C86.3521 91.1713 86.3785 91.4211 86.4104 91.4211C86.4423 91.4211 86.4678 91.1774 86.4678 90.8631C86.4678 90.5488 86.4359 90.6999 86.404 90.6999C86.3721 90.6999 86.3521 90.5549 86.3521 90.8631Z" fill="#FFD037"/>
<path d="M86.0333 91.231C86.2356 91.3784 86.4115 91.4674 86.427 91.4296C86.4425 91.3918 86.2912 91.242 86.0889 91.0946C85.8865 90.9472 85.9658 91.0544 85.9503 91.0946C85.9348 91.1348 85.8309 91.0836 86.0333 91.231Z" fill="#FFD037"/>
<path d="M86.5117 95.0905C86.5117 95.0905 87.9118 95.032 88.3347 94.6312C88.7576 94.2304 90.4886 93.7492 90.5934 94.3876C90.6982 95.0259 92.6971 97.5903 91.1166 97.6074C89.536 97.6245 87.4442 97.2785 87.0231 96.9361C86.602 96.5938 86.5117 95.0905 86.5117 95.0905Z" fill="#A8A8A8"/>
<path opacity="0.2" d="M91.144 97.3905C89.5634 97.4076 87.4715 97.0616 87.0504 96.7192C86.7296 96.4573 86.602 95.5205 86.5591 95.0892H86.5117C86.5117 95.0892 86.6029 96.5986 87.0222 96.9422C87.4414 97.2857 89.5352 97.6305 91.1157 97.6134C91.5714 97.6134 91.7291 97.3917 91.7209 97.0701C91.6553 97.2687 91.483 97.3905 91.144 97.3905Z" fill="black"/>
<path d="M23.9396 92.9427C24.1069 92.7608 24.229 92.5153 24.2896 92.2386C24.3343 91.9584 24.2449 91.6221 24.0453 91.5198C23.8211 91.4053 23.5814 91.6136 23.4 91.8232C23.2186 92.0327 23.0099 92.2727 22.772 92.2276C22.8943 92.0795 22.9858 91.8916 23.0376 91.6821C23.0894 91.4727 23.0996 91.2488 23.0673 91.0325C23.0569 90.9429 23.0286 90.8587 22.9853 90.7889C22.8613 90.611 22.6353 90.6877 22.4858 90.8278C22.0118 91.2725 21.8796 92.1338 21.8778 92.9074C21.8295 92.6284 21.8696 92.3373 21.8687 92.0546C21.8678 91.772 21.8085 91.4455 21.6281 91.2969C21.5166 91.2144 21.3909 91.1724 21.2635 91.175C21.0502 91.1641 20.8132 91.1933 20.6674 91.4016C20.4851 91.6599 20.5334 92.0948 20.691 92.3762C20.8487 92.6577 21.0875 92.8404 21.3072 93.0365C21.484 93.177 21.6348 93.369 21.7484 93.5981C21.7617 93.6304 21.7726 93.6643 21.7812 93.6993H23.1111C23.4116 93.4983 23.6903 93.2438 23.9396 92.9427Z" fill="#06AC9C"/>
<path d="M13.3267 94.8639C13.3267 94.8639 12.0507 89.0528 13.5665 84.7743C14.2127 82.9856 14.4078 80.9651 14.1225 79.0157C13.9809 78.0916 13.7764 77.1868 13.5118 76.3124" stroke="#535461" stroke-width="2" stroke-miterlimit="10"/>
<path d="M14.4589 73.6092C14.4589 74.3207 13.4936 76.3868 13.4936 76.3868C13.4936 76.3868 12.5283 74.3158 12.5283 73.6092C12.5283 73.2671 12.63 72.9389 12.811 72.697C12.9921 72.455 13.2376 72.3191 13.4936 72.3191C13.7496 72.3191 13.9951 72.455 14.1761 72.697C14.3572 72.9389 14.4589 73.2671 14.4589 73.6092Z" fill="#06AC9C"/>
<path d="M16.0542 77.5538C15.7643 78.1519 14.1145 79.185 14.1145 79.185C14.1145 79.185 14.1437 76.7485 14.4335 76.1528C14.5752 75.8736 14.793 75.6797 15.0403 75.6126C15.2876 75.5455 15.5447 75.6105 15.7566 75.7936C15.9685 75.9768 16.1183 76.2636 16.1739 76.5926C16.2295 76.9216 16.1866 77.2666 16.0542 77.5538Z" fill="#06AC9C"/>
<path d="M15.9839 84.2969C15.5081 84.6173 13.6934 84.3955 13.6934 84.3955C13.6934 84.3955 14.6395 82.3148 15.1153 81.9931C15.2288 81.9128 15.3531 81.8636 15.481 81.8483C15.6089 81.833 15.7378 81.8519 15.8601 81.904C15.9825 81.9561 16.0958 82.0403 16.1935 82.1517C16.2912 82.2631 16.3713 82.3994 16.429 82.5526C16.4868 82.7059 16.5212 82.873 16.53 83.0442C16.5389 83.2154 16.5221 83.3873 16.4806 83.5497C16.4392 83.7122 16.3739 83.8619 16.2886 83.9902C16.2033 84.1185 16.0998 84.2227 15.9839 84.2969Z" fill="#06AC9C"/>
<path d="M15.0714 89.3817C14.643 89.8056 12.8264 89.9908 12.8264 89.9908C12.8264 89.9908 13.4955 87.7261 13.9202 87.3021C14.0213 87.1913 14.1382 87.1092 14.2639 87.0606C14.3895 87.012 14.5211 86.9981 14.6509 87.0196C14.7807 87.0411 14.9058 87.0976 15.0187 87.1857C15.1317 87.2738 15.23 87.3916 15.3078 87.5321C15.3857 87.6725 15.4413 87.8326 15.4714 88.0027C15.5016 88.1728 15.5055 88.3492 15.4831 88.5214C15.4606 88.6936 15.4122 88.8578 15.3408 89.0043C15.2695 89.1507 15.1766 89.2762 15.0678 89.3732L15.0714 89.3817Z" fill="#06AC9C"/>
<path d="M12.0885 79.3227C12.4704 79.8198 14.2514 80.3339 14.2514 80.3339C14.2514 80.3339 13.8148 77.9693 13.4311 77.4722C13.341 77.3491 13.2334 77.2514 13.1146 77.1848C12.9957 77.1182 12.8682 77.084 12.7393 77.0844C12.6105 77.0847 12.483 77.1195 12.3644 77.1867C12.2458 77.2539 12.1384 77.3522 12.0486 77.4757C11.9589 77.5993 11.8885 77.7456 11.8418 77.906C11.795 78.0665 11.7727 78.2378 11.7762 78.4099C11.7798 78.5821 11.8091 78.7515 11.8624 78.9083C11.9157 79.0651 11.9919 79.206 12.0866 79.3227H12.0885Z" fill="#06AC9C"/>
<path d="M11.0794 85.2883C11.5552 85.6087 13.37 85.3882 13.37 85.3882C13.37 85.3882 12.4248 83.3063 11.9481 82.9859C11.835 82.9096 11.7117 82.8639 11.5854 82.8513C11.459 82.8388 11.3321 82.8596 11.2118 82.9126C11.0915 82.9656 10.9801 83.0497 10.8842 83.1602C10.7882 83.2707 10.7094 83.4054 10.6524 83.5566C10.5953 83.7078 10.5611 83.8725 10.5517 84.0414C10.5423 84.2102 10.5579 84.3799 10.5975 84.5407C10.6372 84.7015 10.7002 84.8503 10.7828 84.9786C10.8655 85.1069 10.9663 85.2121 11.0794 85.2883Z" fill="#06AC9C"/>
<path d="M10.691 91.2676C11.1194 91.6903 12.936 91.8767 12.936 91.8767C12.936 91.8767 12.267 89.6108 11.8422 89.1868C11.6361 89.0031 11.385 88.9323 11.1409 88.9891C10.8967 89.046 10.6783 89.2261 10.5309 89.4923C10.3834 89.7584 10.3182 90.0902 10.3486 90.4188C10.3791 90.7475 10.503 91.0479 10.6947 91.2579L10.691 91.2676Z" fill="#06AC9C"/>
<path d="M14.4589 73.6092C14.4589 74.3207 13.4936 76.3868 13.4936 76.3868C13.4936 76.3868 12.5283 74.3158 12.5283 73.6092C12.5283 73.2671 12.63 72.9389 12.811 72.697C12.9921 72.455 13.2376 72.3191 13.4936 72.3191C13.7496 72.3191 13.9951 72.455 14.1761 72.697C14.3572 72.9389 14.4589 73.2671 14.4589 73.6092Z" fill="#06AC9C"/>
<path d="M16.0542 77.5538C15.7643 78.1519 14.1145 79.185 14.1145 79.185C14.1145 79.185 14.1437 76.7485 14.4335 76.1528C14.5752 75.8736 14.793 75.6797 15.0403 75.6126C15.2876 75.5455 15.5447 75.6105 15.7566 75.7936C15.9685 75.9768 16.1183 76.2636 16.1739 76.5926C16.2295 76.9216 16.1866 77.2666 16.0542 77.5538Z" fill="#06AC9C"/>
<path d="M15.9839 84.2969C15.5081 84.6173 13.6934 84.3955 13.6934 84.3955C13.6934 84.3955 14.6395 82.3148 15.1153 81.9931C15.2288 81.9128 15.3531 81.8636 15.481 81.8483C15.6089 81.833 15.7378 81.8519 15.8601 81.904C15.9825 81.9561 16.0958 82.0403 16.1935 82.1517C16.2912 82.2631 16.3713 82.3994 16.429 82.5526C16.4868 82.7059 16.5212 82.873 16.53 83.0442C16.5389 83.2154 16.5221 83.3873 16.4806 83.5497C16.4392 83.7122 16.3739 83.8619 16.2886 83.9902C16.2033 84.1185 16.0998 84.2227 15.9839 84.2969Z" fill="#06AC9C"/>
<path d="M15.0714 89.3817C14.643 89.8056 12.8264 89.9908 12.8264 89.9908C12.8264 89.9908 13.4955 87.7261 13.9202 87.3021C14.0213 87.1913 14.1382 87.1092 14.2639 87.0606C14.3895 87.012 14.5211 86.9981 14.6509 87.0196C14.7807 87.0411 14.9058 87.0976 15.0187 87.1857C15.1317 87.2738 15.23 87.3916 15.3078 87.5321C15.3857 87.6725 15.4413 87.8326 15.4714 88.0027C15.5016 88.1728 15.5055 88.3492 15.4831 88.5214C15.4606 88.6936 15.4122 88.8578 15.3408 89.0043C15.2695 89.1507 15.1766 89.2762 15.0678 89.3732L15.0714 89.3817Z" fill="#06AC9C"/>
<path d="M12.0885 79.3227C12.4704 79.8198 14.2514 80.3339 14.2514 80.3339C14.2514 80.3339 13.8148 77.9693 13.4311 77.4722C13.341 77.3491 13.2334 77.2514 13.1146 77.1848C12.9957 77.1182 12.8682 77.084 12.7393 77.0844C12.6105 77.0847 12.483 77.1195 12.3644 77.1867C12.2458 77.2539 12.1384 77.3522 12.0486 77.4757C11.9589 77.5993 11.8885 77.7456 11.8418 77.906C11.795 78.0665 11.7727 78.2378 11.7762 78.4099C11.7798 78.5821 11.8091 78.7515 11.8624 78.9083C11.9157 79.0651 11.9919 79.206 12.0866 79.3227H12.0885Z" fill="#06AC9C"/>
<path d="M11.0794 85.2883C11.5552 85.6087 13.37 85.3882 13.37 85.3882C13.37 85.3882 12.4248 83.3063 11.9481 82.9859C11.835 82.9096 11.7117 82.8639 11.5854 82.8513C11.459 82.8388 11.3321 82.8596 11.2118 82.9126C11.0915 82.9656 10.9801 83.0497 10.8842 83.1602C10.7882 83.2707 10.7094 83.4054 10.6524 83.5566C10.5953 83.7078 10.5611 83.8725 10.5517 84.0414C10.5423 84.2102 10.5579 84.3799 10.5975 84.5407C10.6372 84.7015 10.7002 84.8503 10.7828 84.9786C10.8655 85.1069 10.9663 85.2121 11.0794 85.2883Z" fill="#06AC9C"/>
<path d="M10.691 91.2676C11.1194 91.6903 12.936 91.8767 12.936 91.8767C12.936 91.8767 12.267 89.6108 11.8422 89.1868C11.6361 89.0031 11.385 88.9323 11.1409 88.9891C10.8967 89.046 10.6783 89.2261 10.5309 89.4923C10.3834 89.7584 10.3182 90.0902 10.3486 90.4188C10.3791 90.7475 10.503 91.0479 10.6947 91.2579L10.691 91.2676Z" fill="#06AC9C"/>
<path d="M10.2998 94.4983C10.2998 94.4983 11.8594 94.0841 12.275 93.5322C12.6907 92.9804 14.5629 92.0143 14.7707 92.7038C14.9785 93.3934 17.5781 95.7397 15.8107 96.1539C14.0433 96.5681 11.6516 96.7058 11.1311 96.4292C10.6106 96.1527 10.2998 94.4983 10.2998 94.4983Z" fill="#A8A8A8"/>
<path opacity="0.2" d="M15.8107 95.8969C14.0424 96.3111 11.6516 96.4488 11.1311 96.1735C10.7355 95.9627 10.4602 94.9552 10.3518 94.4838L10.2998 94.4984C10.2998 94.4984 10.6115 96.154 11.1311 96.4293C11.6506 96.7046 14.0424 96.5682 15.8107 96.154C16.3202 96.0322 16.4661 95.7532 16.4114 95.3987C16.3658 95.6301 16.1899 95.8068 15.8107 95.8969Z" fill="black"/>
</g>
<defs>
<linearGradient id="paint0_linear" x1="46.7953" y1="98.2347" x2="46.7953" y2="16.7241" gradientUnits="userSpaceOnUse">
<stop stop-color="#808080" stop-opacity="0.25"/>
<stop offset="0.54" stop-color="#808080" stop-opacity="0.12"/>
<stop offset="1" stop-color="#808080" stop-opacity="0.1"/>
</linearGradient>
<clipPath id="clip0">
<rect width="100" height="100" fill="white"/>
</clipPath>
</defs>
</svg>
